<svg width="60" height="60" viewBox="0 0 60 60" fill="none" xmlns="http://www.w3.org/2000/svg">
<path d="M58.1906 25.141C58.1917 33.1092 55.3705 40.8202 50.2275 46.9064C45.0845 52.9925 37.952 57.0604 30.0953 58.3884C22.2386 57.0604 15.1062 52.9925 9.96313 46.9064C4.8201 40.8202 1.99893 33.1092 2 25.141V5.9438C2 4.95028 2.39467 3.99746 3.09719 3.29494C3.79971 2.59243 4.75253 2.19775 5.74604 2.19775H54.4446C55.4381 2.19775 56.3909 2.59243 57.0934 3.29494C57.796 3.99746 58.1906 4.95028 58.1906 5.9438V25.141Z" fill="#5445FF" stroke="#5445FF" stroke-width="3" stroke-miterlimit="10" stroke-linecap="square"/>
<path d="M30.0957 18.7412V37.8453" stroke="white" stroke-width="3" stroke-miterlimit="10" stroke-linecap="square"/>
<path d="M20.543 28.293H39.647" stroke="white" stroke-width="3" stroke-miterlimit="10" stroke-linecap="square"/>
</svg>
