<svg width="80" height="52" viewBox="0 0 80 52" fill="none" xmlns="http://www.w3.org/2000/svg">
<path d="M22.5057 25.256C28.8175 25.256 33.9342 20.1393 33.9342 13.8275C33.9342 7.51566 28.8175 2.39893 22.5057 2.39893C16.1939 2.39893 11.0771 7.51566 11.0771 13.8275C11.0771 20.1393 16.1939 25.256 22.5057 25.256Z" fill="#5445FF" stroke="#5445FF" stroke-width="3" stroke-miterlimit="10" stroke-linecap="square"/>
<path d="M57.828 25.256C64.1398 25.256 69.2565 20.1393 69.2565 13.8275C69.2565 7.51566 64.1398 2.39893 57.828 2.39893C51.5161 2.39893 46.3994 7.51566 46.3994 13.8275C46.3994 20.1393 51.5161 25.256 57.828 25.256Z" stroke="white" stroke-width="3" stroke-miterlimit="10" stroke-linecap="square"/>
<path d="M1.93457 50.399C1.93457 39.039 11.146 29.8276 22.506 29.8276C33.8659 29.8276 43.0773 39.039 43.0773 50.399" fill="#5445FF"/>
<path d="M1.93457 50.399C1.93457 39.039 11.146 29.8276 22.506 29.8276C33.8659 29.8276 43.0773 39.039 43.0773 50.399" stroke="#5445FF" stroke-width="3" stroke-miterlimit="10" stroke-linecap="square"/>
<path d="M78.399 50.399C78.399 39.039 69.1876 29.8276 57.8276 29.8276C53.4759 29.8276 49.4394 31.1794 46.1152 33.4859" stroke="white" stroke-width="3" stroke-miterlimit="10" stroke-linecap="square"/>
<rect x="1.72559" y="49.6318" width="41.9044" height="2.26685" fill="#5445FF"/>
</svg>
