<svg width="67" height="61" viewBox="0 0 67 61" fill="none" xmlns="http://www.w3.org/2000/svg">
<path d="M40.6343 49.3413V54.1706C40.6343 56.8363 38.4708 58.9999 35.805 58.9999H30.9758C28.31 58.9999 26.1465 56.8363 26.1465 54.1706V49.3413" stroke="white" stroke-width="3" stroke-miterlimit="10"/>
<path d="M50.2932 22.7804C50.2932 13.4454 42.7257 5.87793 33.3907 5.87793C24.0558 5.87793 16.4883 13.4454 16.4883 22.7804C16.4883 34.8536 26.1468 34.8536 26.1468 49.3414H40.6346C40.6346 34.8536 50.2932 34.8536 50.2932 22.7804Z" fill="#5445FF" stroke="#5445FF" stroke-width="3" stroke-miterlimit="10"/>
<path d="M6.36523 47.3899L9.77953 43.9756" stroke="white" stroke-width="3" stroke-miterlimit="10" stroke-linecap="square"/>
<path d="M57.001 6.4143L60.4153 3" stroke="white" stroke-width="3" stroke-miterlimit="10" stroke-linecap="square"/>
<path d="M6.36523 3L9.77953 6.4143" stroke="white" stroke-width="3" stroke-miterlimit="10" stroke-linecap="square"/>
<path d="M57.001 43.9756L60.4153 47.3899" stroke="white" stroke-width="3" stroke-miterlimit="10" stroke-linecap="square"/>
<path d="M2 25.1948H6.82927" stroke="white" stroke-width="3" stroke-miterlimit="10" stroke-linecap="square"/>
<path d="M59.9512 25.1948H64.7804" stroke="white" stroke-width="3" stroke-miterlimit="10" stroke-linecap="square"/>
</svg>
