<?xml version="1.0" standalone="no"?>
<!DOCTYPE svg PUBLIC "-//W3C//DTD SVG 20010904//EN"
 "http://www.w3.org/TR/2001/REC-SVG-20010904/DTD/svg10.dtd">
<svg version="1.0" xmlns="http://www.w3.org/2000/svg"
 width="882.000000pt" height="882.000000pt" viewBox="0 0 882.000000 882.000000"
 preserveAspectRatio="xMidYMid meet">
<metadata>
Created by potrace 1.11, written by Peter Selinger 2001-2013
</metadata>
<g transform="translate(0.000000,882.000000) scale(0.100000,-0.100000)"
fill="#000000" stroke="none">
<path d="M4320 8527 c-25 -5 -51 -14 -59 -20 -7 -6 -20 -12 -29 -13 -8 -2 -18
-6 -21 -11 -3 -4 -15 -13 -26 -19 -37 -20 -102 -111 -122 -171 -24 -69 -26
-231 -3 -258 7 -8 10 -15 6 -15 -13 0 46 -96 82 -133 34 -35 140 -97 167 -97
9 0 12 -52 12 -195 0 -172 -2 -195 -16 -196 -9 0 -286 -2 -616 -4 -330 -2
-613 -5 -630 -8 -16 -3 -46 -8 -65 -12 -19 -4 -41 -8 -47 -8 -7 0 -13 -3 -13
-6 0 -3 -15 -7 -32 -8 -18 -2 -34 -7 -36 -13 -2 -6 -8 -7 -13 -4 -6 3 -15 1
-22 -4 -7 -6 -16 -11 -22 -12 -49 -10 -245 -112 -253 -132 -2 -4 -10 -8 -18
-8 -8 0 -14 -4 -14 -10 0 -5 -5 -10 -10 -10 -16 0 -156 -131 -210 -197 -18
-21 -78 -107 -97 -138 -35 -57 -94 -192 -117 -266 -42 -140 -54 -232 -51 -384
4 -154 17 -225 72 -377 14 -37 25 -71 26 -75 0 -7 53 -103 75 -139 18 -30 92
-131 109 -151 11 -13 24 -19 28 -15 5 4 5 2 2 -4 -5 -9 93 -111 135 -139 167
-113 266 -164 394 -204 155 -47 165 -48 1559 -46 721 1 1321 5 1335 8 14 4 48
12 75 18 103 23 245 75 245 90 0 5 7 6 15 3 8 -4 15 -2 15 3 0 5 16 15 35 22
19 7 35 17 35 22 0 5 5 9 11 9 20 0 133 86 205 156 107 105 235 279 217 297
-3 4 -2 7 4 7 27 0 106 230 128 375 14 98 13 334 -3 375 -5 14 -10 28 -10 33
-1 31 -15 88 -23 93 -5 3 -7 9 -5 13 5 8 -23 91 -52 151 -9 19 -16 39 -17 43
0 4 -7 12 -15 17 -8 5 -12 10 -8 10 4 0 -10 30 -33 66 -42 70 -51 82 -86 120
-13 14 -23 28 -23 31 0 6 -110 113 -147 144 -67 55 -233 156 -233 141 0 -4 -4
-2 -8 4 -6 10 -129 63 -157 68 -5 1 -19 5 -30 9 -32 10 -108 25 -175 34 -25 3
-315 7 -646 7 l-601 1 0 190 c-1 193 3 215 38 215 9 0 24 7 32 15 8 8 17 12
20 9 16 -17 134 106 164 171 24 53 27 72 28 160 0 106 -11 147 -60 225 -28 44
-122 123 -136 114 -5 -3 -9 -1 -9 4 0 27 -166 47 -250 29z"/>
<path d="M7669 5646 c-3 -3 -18 -7 -34 -10 -17 -3 -39 -8 -50 -10 -27 -6 -103
-34 -118 -43 -7 -4 -14 -8 -17 -9 -37 -11 -50 -18 -50 -26 0 -5 -4 -7 -9 -4
-5 3 -20 -5 -34 -18 -14 -13 -28 -22 -30 -20 -2 3 -41 -30 -85 -73 -78 -76
-162 -183 -162 -209 0 -7 -4 -14 -10 -16 -11 -3 -65 -153 -75 -208 -17 -86
-20 -193 -9 -265 3 -22 7 -47 8 -55 2 -13 13 -51 32 -110 3 -8 5 -16 4 -18 -2
-6 87 -165 106 -187 11 -13 29 -35 39 -49 10 -14 22 -23 27 -20 4 3 8 -1 8 -8
0 -7 17 -24 38 -38 20 -14 42 -30 47 -36 21 -22 93 -74 104 -74 6 0 11 -4 11
-8 0 -8 67 -41 93 -46 7 -2 20 -6 29 -10 9 -4 25 -9 35 -11 10 -2 19 -4 21 -5
3 -3 10 -5 62 -15 75 -14 211 -13 285 3 92 19 86 17 120 31 17 7 35 14 40 15
6 1 42 19 82 40 66 35 200 143 189 153 -2 2 6 14 18 27 44 46 76 86 76 96 0 5
4 10 10 10 19 0 91 163 104 234 3 14 7 30 10 35 10 15 15 216 7 230 -6 9 -23
11 -57 7 -27 -3 -74 -8 -104 -11 -30 -3 -73 -8 -95 -10 -22 -3 -67 -7 -100
-10 -77 -8 -93 -10 -99 -16 -3 -3 -16 -93 -18 -136 -1 -7 -4 -13 -8 -13 -3 0
-12 -16 -19 -35 -7 -19 -17 -35 -22 -35 -6 0 -8 -4 -5 -8 7 -11 -58 -73 -109
-104 -22 -14 -59 -29 -82 -35 -37 -9 -133 -9 -173 0 -40 9 -109 49 -143 84
-42 41 -82 93 -72 93 3 0 -2 11 -11 25 -9 14 -13 25 -10 25 4 0 2 9 -4 21 -18
33 -13 138 9 194 44 112 141 200 243 219 l37 7 -4 47 c-2 26 -6 65 -9 87 -3
22 -8 67 -11 100 -8 80 -16 145 -19 170 -2 11 -4 30 -5 43 -1 19 -20 30 -32
18z"/>
<path d="M4207 4554 c-1 -1 -29 -5 -62 -8 -33 -4 -71 -8 -85 -11 -14 -2 -47
-7 -75 -10 -27 -3 -68 -10 -90 -15 -22 -5 -53 -11 -70 -14 -25 -5 -79 -18
-205 -51 -33 -9 -106 -36 -122 -45 -10 -6 -23 -10 -28 -10 -14 0 -82 -30 -200
-89 -117 -59 -129 -66 -205 -118 -196 -138 -331 -278 -423 -442 -31 -56 -75
-162 -88 -211 -2 -8 -9 -35 -15 -60 -20 -74 -16 -495 7 -680 3 -25 12 -97 21
-160 8 -63 17 -125 18 -137 2 -12 6 -34 9 -50 4 -15 9 -41 12 -58 2 -16 7 -37
9 -45 3 -8 7 -33 11 -55 3 -22 10 -48 15 -57 5 -9 8 -21 7 -25 -2 -8 18 -85
29 -113 3 -8 7 -22 8 -30 1 -8 10 -42 20 -75 10 -33 20 -64 21 -70 10 -35 52
-146 57 -152 4 -3 7 -15 7 -25 0 -10 5 -18 10 -18 6 0 9 -3 8 -7 -5 -14 25
-93 34 -93 5 0 7 -4 4 -8 -3 -5 15 -49 39 -98 25 -49 45 -95 45 -101 0 -7 3
-13 8 -13 4 0 18 -25 32 -55 14 -30 28 -55 32 -55 5 0 8 -5 8 -11 0 -13 105
-183 126 -204 8 -7 14 -17 14 -20 0 -7 73 -102 130 -170 76 -90 242 -245 326
-305 27 -19 55 -40 62 -47 8 -7 17 -11 22 -8 5 3 10 1 12 -3 3 -10 76 -57 93
-62 6 -1 28 -12 50 -24 92 -51 274 -108 393 -124 64 -8 297 -8 347 1 68 11 99
18 140 29 22 5 47 11 55 13 75 15 396 178 420 214 3 4 12 12 21 17 53 29 349
313 349 334 0 4 13 22 29 39 16 17 66 88 112 158 104 157 101 154 141 233 18
36 36 67 41 68 4 2 7 8 7 13 0 6 18 49 41 97 66 142 68 146 63 154 -3 4 -1 8
4 8 5 0 12 10 15 22 3 13 19 61 36 108 31 83 88 265 96 305 3 11 8 34 12 50 4
17 7 32 8 35 1 3 5 21 10 40 4 19 9 42 10 50 1 8 4 24 8 35 3 11 8 31 11 45 2
14 9 52 15 85 5 33 13 78 16 100 3 23 7 52 10 65 3 13 7 56 11 95 3 38 8 73
10 76 8 14 19 262 18 434 0 178 -2 196 -29 290 -15 55 -33 103 -39 107 -6 4
-7 8 -3 8 11 0 -48 110 -93 176 -66 97 -184 227 -195 216 -3 -3 -5 0 -5 6 0
22 -259 212 -289 212 -6 0 -11 3 -11 8 0 8 -61 38 -72 34 -5 -1 -8 2 -8 7 0 9
-40 27 -48 22 -1 -1 -10 5 -18 14 -9 8 -20 13 -25 10 -5 -4 -9 -1 -9 5 0 6 -4
9 -9 5 -5 -3 -12 -1 -16 5 -3 5 -15 10 -26 10 -10 0 -19 5 -19 11 0 5 -4 8 -9
4 -5 -3 -13 0 -16 6 -4 5 -13 8 -21 5 -8 -3 -14 -1 -14 4 0 6 -3 9 -7 8 -5 0
-15 2 -23 5 -45 19 -105 35 -112 31 -4 -3 -8 0 -8 5 0 6 -3 10 -7 9 -5 -1 -26
4 -48 10 -22 6 -51 13 -65 16 -14 2 -25 5 -25 6 0 1 -9 3 -20 4 -11 2 -33 6
-50 10 -63 14 -78 16 -200 32 -22 3 -56 7 -75 10 -32 5 -468 12 -473 8z"/>
<path d="M6815 4061 c-90 -23 -177 -98 -221 -187 -25 -50 -29 -71 -29 -140 0
-79 25 -164 47 -164 5 0 7 -3 4 -8 -2 -4 2 -16 10 -27 8 -10 14 -16 14 -12 0
3 11 -4 24 -16 90 -84 123 -100 218 -103 77 -3 114 6 183 43 29 16 122 103
109 103 -3 0 4 13 15 28 11 16 23 42 27 58 9 41 14 166 6 179 -4 5 -7 16 -8
22 -4 23 -29 73 -36 73 -5 0 -8 5 -8 11 0 11 -75 89 -84 89 -3 0 -22 10 -43
22 -20 12 -44 24 -53 26 -39 8 -148 10 -175 3z"/>
</g>
</svg>
