<?xml version="1.0" standalone="no"?>
<!DOCTYPE svg PUBLIC "-//W3C//DTD SVG 1.1//EN" "http://www.w3.org/Graphics/SVG/1.1/DTD/svg11.dtd" >
<svg xmlns="http://www.w3.org/2000/svg">
<metadata>Generated by IcoMoon</metadata>
<defs>
<font id="icomoon" horiz-adv-x="1024">
<font-face units-per-em="1024" ascent="870.4" descent="-153.6" />
<missing-glyph horiz-adv-x="1024" />
<glyph unicode="&#x20;" d="" />
<glyph unicode="&#xe800;" glyph-name="heart" d="M512-87.296q-14.336 0-25.6 10.24l-356.352 344.064q-5.12 5.12-15.36 15.36t-31.744 37.888-38.912 55.296-30.72 68.608-13.312 78.848q0 125.952 72.704 196.608t200.704 71.68q34.816 0 71.68-12.288t68.608-33.792 55.296-38.912 43.008-38.912q20.48 20.48 43.008 38.912t55.296 38.912 68.608 33.792 71.68 12.288q128 0 200.704-71.68t72.704-196.608q0-125.952-131.072-257.024l-355.328-343.040q-10.24-10.24-25.6-10.24z" />
<glyph unicode="&#xe801;" glyph-name="heart-empty" d="M951.296 523.008q0 47.104-12.288 81.92t-31.744 56.32-47.104 33.792-53.248 18.432-56.32 4.096-63.488-14.336-63.488-36.864-49.152-40.96-34.816-34.816q-10.24-13.312-27.648-13.312t-27.648 13.312q-14.336 15.36-34.816 34.816t-49.152 40.96-63.488 36.864-63.488 14.336-56.32-4.096-53.248-18.432-47.104-33.792-31.744-56.32-12.288-81.92q0-95.232 107.52-202.752l331.776-319.488 331.776 319.488q107.52 107.52 107.52 202.752zM1024 523.008q0-125.952-131.072-257.024l-355.328-343.040q-10.24-10.24-25.6-10.24t-25.6 10.24l-356.352 344.064q-5.12 5.12-15.36 15.36t-31.744 37.888-38.912 55.296-30.72 68.608-13.312 78.848q0 125.952 72.704 196.608t200.704 71.68q34.816 0 71.68-12.288t68.608-33.792 55.296-38.912 43.008-38.912q20.48 20.48 43.008 38.912t55.296 38.912 68.608 33.792 71.68 12.288q128 0 200.704-71.68t72.704-196.608z" />
<glyph unicode="&#xe802;" glyph-name="star" horiz-adv-x="950" d="M951.296 494.336q0-12.288-15.36-27.648l-206.848-201.728 49.152-285.696q0-4.096 0-12.288 0-11.264-6.144-19.456t-17.408-9.216q-10.24 0-22.528 7.168l-257.024 135.168-256-135.168q-12.288-7.168-23.552-7.168t-17.408 9.216-6.144 19.456q0 4.096 1.024 12.288l49.152 285.696-207.872 201.728q-14.336 15.36-14.336 27.648 0 21.504 31.744 26.624l286.72 40.96 129.024 260.096q11.264 23.552 27.648 23.552t28.672-23.552l128-260.096 286.72-40.96q32.768-5.12 32.768-26.624z" />
<glyph unicode="&#xe803;" glyph-name="star-empty" horiz-adv-x="950" d="M650.24 290.56l174.080 169.984-240.64 34.816-108.544 218.112-107.52-218.112-241.664-34.816 175.104-169.984-41.984-240.64 216.064 113.664 216.064-113.664zM951.296 494.336q0-12.288-15.36-27.648l-206.848-201.728 49.152-285.696q0-4.096 0-12.288 0-28.672-23.552-28.672-10.24 0-22.528 7.168l-257.024 135.168-256-135.168q-12.288-7.168-23.552-7.168t-17.408 9.216-6.144 19.456q0 4.096 1.024 12.288l49.152 285.696-207.872 201.728q-14.336 15.36-14.336 27.648 0 21.504 31.744 26.624l286.72 40.96 129.024 260.096q11.264 23.552 27.648 23.552t28.672-23.552l128-260.096 286.72-40.96q32.768-5.12 32.768-26.624z" />
<glyph unicode="&#xe804;" glyph-name="eye" d="M951.296 315.136q-87.040 135.168-218.112 201.728 34.816-59.392 34.816-128 0-105.472-74.752-181.248t-181.248-74.752-181.248 74.752-74.752 181.248q0 68.608 34.816 128-131.072-66.56-218.112-201.728 76.8-116.736 191.488-186.368t247.808-69.632 248.832 69.632 190.464 186.368zM539.648 535.296q0 11.264-8.192 19.456t-19.456 7.168q-71.68 0-122.88-51.2t-51.2-121.856q0-11.264 8.192-19.456t19.456-8.192 19.456 8.192 8.192 19.456q0 49.152 34.816 83.968t83.968 34.816q11.264 0 19.456 8.192t8.192 19.456zM1024 315.136q0-19.456-11.264-38.912-79.872-132.096-215.040-210.944t-285.696-78.848-285.696 78.848-215.040 210.944q-11.264 19.456-11.264 38.912t11.264 39.936q79.872 131.072 215.040 209.92t285.696 79.872 285.696-79.872 215.040-209.92q11.264-20.48 11.264-39.936z" />
<glyph unicode="&#xe805;" glyph-name="eye-off" d="M317.44 101.12l44.032 80.896q-49.152 35.84-77.824 90.112t-27.648 116.736q0 68.608 34.816 128-131.072-66.56-218.112-201.728 96.256-147.456 244.736-214.016zM539.648 535.296q0 11.264-8.192 19.456t-19.456 7.168q-71.68 0-122.88-51.2t-51.2-121.856q0-11.264 8.192-19.456t19.456-8.192 19.456 8.192 8.192 19.456q0 49.152 34.816 83.968t83.968 34.816q11.264 0 19.456 8.192t8.192 19.456zM746.496 643.84q0-4.096 0-5.12-60.416-107.52-180.224-323.584t-180.224-323.584l-28.672-51.2q-5.12-9.216-15.36-9.216-7.168 0-76.8 39.936-9.216 6.144-9.216 16.384 0 7.168 25.6 50.176-81.92 36.864-150.528 98.304t-119.808 140.288q-11.264 17.408-11.264 38.912t11.264 39.936q88.064 134.144 217.088 211.968t283.648 77.824q51.2 0 102.4-10.24l31.744 55.296q5.12 9.216 15.36 9.216 3.072 0 10.24-3.072t18.432-9.216 18.432-10.24 18.432-10.24 10.24-7.168q9.216-5.12 9.216-15.36zM768 388.864q0-79.872-45.056-145.408t-119.808-93.184l160.768 286.72q4.096-25.6 4.096-48.128zM1024 315.136q0-19.456-11.264-38.912-22.528-36.864-62.464-82.944-86.016-98.304-198.656-152.576t-239.616-54.272l41.984 75.776q121.856 10.24 224.256 77.824t173.056 175.104q-66.56 102.4-161.792 167.936l35.84 64.512q54.272-36.864 104.448-87.040t82.944-105.472q11.264-19.456 11.264-39.936z" />
<glyph unicode="&#xe806;" glyph-name="camera" horiz-adv-x="1097" d="M548.864 480q67.584 0 115.712-48.128t48.128-116.736-48.128-115.712-115.712-48.128-116.736 48.128-48.128 115.712 48.128 116.736 116.736 48.128zM951.296 717.568q60.416 0 103.424-43.008t41.984-103.424v-512q0-60.416-41.984-103.424t-103.424-43.008h-804.864q-60.416 0-103.424 43.008t-43.008 103.424v512q0 60.416 43.008 103.424t103.424 43.008h128l28.672 77.824q11.264 27.648 39.936 48.128t59.392 20.48h292.864q29.696 0 58.368-20.48t39.936-48.128l29.696-77.824h128zM548.864 59.136q105.472 0 180.224 75.776t75.776 180.224-75.776 181.248-180.224 74.752-181.248-74.752-74.752-181.248 74.752-180.224 181.248-75.776z" />
<glyph unicode="&#xe807;" glyph-name="picture" horiz-adv-x="1097" d="M365.568 535.296q0-46.080-31.744-77.824t-77.824-32.768-77.824 32.768-31.744 77.824 31.744 77.824 77.824 31.744 77.824-31.744 31.744-77.824zM951.296 315.136v-256h-804.864v109.568l182.272 183.296 92.16-91.136 291.84 291.84zM1005.568 717.568h-914.432q-7.168 0-12.288-5.12t-6.144-13.312v-694.272q0-7.168 6.144-13.312t12.288-5.12h914.432q7.168 0 13.312 5.12t5.12 13.312v694.272q0 8.192-5.12 13.312t-13.312 5.12zM1096.704 699.136v-694.272q0-37.888-26.624-64.512t-64.512-27.648h-914.432q-36.864 0-64.512 27.648t-26.624 64.512v694.272q0 37.888 26.624 64.512t64.512 27.648h914.432q37.888 0 64.512-27.648t26.624-64.512z" />
<glyph unicode="&#xe808;" glyph-name="mail" d="M951.296 4.864v438.272q-18.432-20.48-39.936-36.864-152.576-117.76-243.712-193.536-28.672-24.576-47.104-37.888t-49.152-28.672-58.368-13.312h-2.048q-26.624 0-58.368 13.312t-49.152 28.672-47.104 37.888q-90.112 75.776-243.712 193.536-21.504 16.384-39.936 36.864v-438.272q0-7.168 6.144-13.312t12.288-5.12h841.728q7.168 0 12.288 5.12t6.144 13.312zM951.296 604.928v14.336t-1.024 7.168-1.024 7.168-3.072 5.12-5.12 4.096-8.192 2.048h-841.728q-7.168 0-12.288-6.144t-6.144-12.288q0-96.256 84.992-162.816 109.568-86.016 228.352-180.224 4.096-3.072 20.48-17.408t25.6-21.504 25.6-17.408 28.672-16.384 24.576-5.12h2.048q11.264 0 24.576 5.12t28.672 16.384 25.6 17.408 25.6 21.504 20.48 17.408q118.784 94.208 229.376 180.224 30.72 24.576 57.344 66.56t26.624 74.752zM1024 626.432v-621.568q0-37.888-26.624-64.512t-64.512-27.648h-841.728q-36.864 0-64.512 27.648t-26.624 64.512v621.568q0 37.888 26.624 64.512t64.512 26.624h841.728q37.888 0 64.512-26.624t26.624-64.512z" />
<glyph unicode="&#xe809;" glyph-name="th-list" d="M292.864 151.296v-110.592q0-22.528-16.384-37.888t-38.912-16.384h-182.272q-23.552 0-38.912 16.384t-16.384 37.888v110.592q0 22.528 16.384 38.912t38.912 15.36h182.272q23.552 0 38.912-15.36t16.384-38.912zM292.864 443.136v-109.568q0-22.528-16.384-38.912t-38.912-15.36h-182.272q-23.552 0-38.912 15.36t-16.384 38.912v109.568q0 23.552 16.384 38.912t38.912 16.384h182.272q23.552 0 38.912-16.384t16.384-38.912zM1024 151.296v-110.592q0-22.528-16.384-37.888t-38.912-16.384h-547.84q-23.552 0-38.912 16.384t-16.384 37.888v110.592q0 22.528 16.384 38.912t38.912 15.36h547.84q23.552 0 38.912-15.36t16.384-38.912zM292.864 736v-109.568q0-22.528-16.384-38.912t-38.912-16.384h-182.272q-23.552 0-38.912 16.384t-16.384 38.912v109.568q0 22.528 16.384 38.912t38.912 16.384h182.272q23.552 0 38.912-16.384t16.384-38.912zM1024 443.136v-109.568q0-22.528-16.384-38.912t-38.912-15.36h-547.84q-23.552 0-38.912 15.36t-16.384 38.912v109.568q0 23.552 16.384 38.912t38.912 16.384h547.84q23.552 0 38.912-16.384t16.384-38.912zM1024 736v-109.568q0-22.528-16.384-38.912t-38.912-16.384h-547.84q-23.552 0-38.912 16.384t-16.384 38.912v109.568q0 22.528 16.384 38.912t38.912 16.384h547.84q23.552 0 38.912-16.384t16.384-38.912z" />
<glyph unicode="&#xe80a;" glyph-name="ok" d="M955.392 540.416q0-22.528-16.384-38.912l-491.52-491.52q-16.384-15.36-38.912-15.36t-38.912 15.36l-284.672 284.672q-15.36 16.384-15.36 38.912t15.36 38.912l77.824 77.824q16.384 16.384 38.912 16.384t38.912-16.384l167.936-168.96 374.784 375.808q16.384 16.384 38.912 16.384t38.912-16.384l77.824-77.824q16.384-15.36 16.384-38.912z" />
<glyph unicode="&#xe80b;" glyph-name="ok-circled" horiz-adv-x="878" d="M734.208 444.16q0 16.384-10.24 26.624l-52.224 51.2q-11.264 11.264-25.6 11.264t-25.6-11.264l-233.472-232.448-129.024 129.024q-11.264 11.264-25.6 11.264t-25.6-11.264l-52.224-51.2q-10.24-10.24-10.24-26.624 0-15.36 10.24-25.6l206.848-206.848q10.24-10.24 25.6-10.24t26.624 10.24l310.272 310.272q10.24 10.24 10.24 25.6zM877.568 352q0-119.808-58.368-220.16t-159.744-159.744-220.16-59.392-221.184 59.392-158.72 159.744-59.392 220.16 59.392 220.16 158.72 159.744 221.184 59.392 220.16-59.392 159.744-159.744 58.368-220.16z" />
<glyph unicode="&#xe80c;" glyph-name="cancel" horiz-adv-x="804" d="M741.376 108.288q0-22.528-15.36-38.912l-77.824-77.824q-16.384-15.36-38.912-15.36t-38.912 15.36l-167.936 168.96-167.936-168.96q-16.384-15.36-38.912-15.36t-38.912 15.36l-77.824 77.824q-16.384 16.384-16.384 38.912t16.384 38.912l167.936 167.936-167.936 167.936q-16.384 16.384-16.384 38.912t16.384 38.912l77.824 77.824q16.384 16.384 38.912 16.384t38.912-16.384l167.936-167.936 167.936 167.936q16.384 16.384 38.912 16.384t38.912-16.384l77.824-77.824q15.36-15.36 15.36-38.912t-15.36-38.912l-167.936-167.936 167.936-167.936q15.36-15.36 15.36-38.912z" />
<glyph unicode="&#xe80d;" glyph-name="cancel-circled" horiz-adv-x="878" d="M656.384 222.976q0 14.336-10.24 25.6l-103.424 103.424 103.424 103.424q10.24 11.264 10.24 25.6 0 15.36-10.24 26.624l-52.224 51.2q-10.24 11.264-25.6 11.264t-25.6-11.264l-103.424-103.424-103.424 103.424q-11.264 11.264-25.6 11.264-16.384 0-26.624-11.264l-51.2-51.2q-11.264-11.264-11.264-26.624 0-14.336 11.264-25.6l103.424-103.424-103.424-103.424q-11.264-11.264-11.264-25.6 0-15.36 11.264-26.624l51.2-51.2q10.24-11.264 26.624-11.264 14.336 0 25.6 11.264l103.424 103.424 103.424-103.424q10.24-11.264 25.6-11.264t25.6 11.264l52.224 51.2q10.24 11.264 10.24 26.624zM877.568 352q0-119.808-58.368-220.16t-159.744-159.744-220.16-59.392-221.184 59.392-158.72 159.744-59.392 220.16 59.392 220.16 158.72 159.744 221.184 59.392 220.16-59.392 159.744-159.744 58.368-220.16z" />
<glyph unicode="&#xe80e;" glyph-name="plus" horiz-adv-x="804" d="M804.864 443.136v-109.568q0-22.528-16.384-38.912t-38.912-15.36h-237.568v-238.592q0-22.528-16.384-37.888t-38.912-16.384h-109.568q-22.528 0-38.912 16.384t-15.36 37.888v238.592h-237.568q-23.552 0-38.912 15.36t-16.384 38.912v109.568q0 23.552 16.384 38.912t38.912 16.384h237.568v237.568q0 22.528 15.36 38.912t38.912 16.384h109.568q23.552 0 38.912-16.384t16.384-38.912v-237.568h237.568q23.552 0 38.912-16.384t16.384-38.912z" />
<glyph unicode="&#xe80f;" glyph-name="plus-circled" horiz-adv-x="878" d="M695.296 315.136v73.728q0 14.336-11.264 25.6t-25.6 10.24h-146.432v146.432q0 15.36-11.264 25.6t-25.6 11.264h-72.704q-15.36 0-25.6-11.264t-11.264-25.6v-146.432h-146.432q-14.336 0-25.6-10.24t-10.24-25.6v-73.728q0-14.336 10.24-25.6t25.6-10.24h146.432v-146.432q0-15.36 11.264-25.6t25.6-11.264h72.704q15.36 0 25.6 11.264t11.264 25.6v146.432h146.432q14.336 0 25.6 10.24t11.264 25.6zM877.568 352q0-119.808-58.368-220.16t-159.744-159.744-220.16-59.392-221.184 59.392-158.72 159.744-59.392 220.16 59.392 220.16 158.72 159.744 221.184 59.392 220.16-59.392 159.744-159.744 58.368-220.16z" />
<glyph unicode="&#xe810;" glyph-name="help-circled" horiz-adv-x="878" d="M512 77.568v109.568q0 8.192-5.12 13.312t-13.312 5.12h-109.568q-8.192 0-13.312-5.12t-5.12-13.312v-109.568q0-8.192 5.12-13.312t13.312-5.12h109.568q8.192 0 13.312 5.12t5.12 13.312zM658.432 461.568q0 50.176-31.744 93.184t-78.848 66.56-97.28 23.552q-139.264 0-211.968-121.856-9.216-13.312 4.096-24.576l75.776-56.32q4.096-4.096 10.24-4.096 9.216 0 14.336 7.168 30.72 38.912 49.152 52.224 19.456 14.336 49.152 14.336 27.648 0 49.152-15.36t21.504-33.792q0-21.504-11.264-34.816t-38.912-25.6q-35.84-15.36-66.56-49.152t-29.696-71.68v-20.48q0-8.192 5.12-13.312t13.312-5.12h109.568q8.192 0 13.312 5.12t5.12 13.312q0 10.24 12.288 27.648t30.72 28.672q18.432 10.24 28.672 16.384t25.6 19.456 25.6 27.648 16.384 34.816 7.168 46.080zM877.568 352q0-119.808-58.368-220.16t-159.744-159.744-220.16-59.392-221.184 59.392-158.72 159.744-59.392 220.16 59.392 220.16 158.72 159.744 221.184 59.392 220.16-59.392 159.744-159.744 58.368-220.16z" />
<glyph unicode="&#xe811;" glyph-name="link" horiz-adv-x="950" d="M832.512 168.704q0 23.552-16.384 38.912l-118.784 118.784q-16.384 16.384-38.912 16.384-24.576 0-40.96-18.432 1.024-1.024 10.24-10.24t12.288-12.288 9.216-11.264 7.168-14.336 2.048-15.36q0-23.552-16.384-38.912t-38.912-16.384q-8.192 0-15.36 2.048t-14.336 7.168-11.264 9.216-12.288 12.288-10.24 10.24q-19.456-17.408-19.456-40.96t16.384-38.912l117.76-118.784q15.36-15.36 38.912-15.36 22.528 0 38.912 15.36l83.968 82.944q16.384 16.384 16.384 37.888zM430.080 572.16q0 22.528-15.36 38.912l-117.76 117.76q-16.384 16.384-38.912 16.384t-38.912-15.36l-83.968-83.968q-16.384-15.36-16.384-37.888t16.384-38.912l118.784-118.784q15.36-15.36 38.912-15.36t40.96 17.408q-2.048 2.048-11.264 11.264t-12.288 12.288-8.192 10.24-7.168 14.336-2.048 16.384q0 22.528 15.36 38.912t38.912 15.36q9.216 0 16.384-2.048t14.336-7.168 11.264-8.192 12.288-12.288 10.24-11.264q18.432 17.408 18.432 41.984zM942.080 168.704q0-67.584-49.152-115.712l-83.968-82.944q-47.104-48.128-115.712-48.128-69.632 0-116.736 49.152l-117.76 117.76q-47.104 48.128-47.104 116.736 0 69.632 50.176 118.784l-50.176 50.176q-49.152-50.176-118.784-50.176-68.608 0-116.736 48.128l-118.784 118.784q-48.128 48.128-48.128 116.736t48.128 115.712l83.968 83.968q48.128 47.104 116.736 47.104t116.736-48.128l117.76-118.784q47.104-47.104 47.104-115.712 0-70.656-50.176-119.808l50.176-50.176q49.152 50.176 118.784 50.176 68.608 0 116.736-48.128l118.784-118.784q48.128-48.128 48.128-116.736z" />
<glyph unicode="&#xe812;" glyph-name="home" horiz-adv-x="950" d="M804.864 296.704v-273.408q0-15.36-11.264-25.6t-25.6-11.264h-219.136v219.136h-146.432v-219.136h-219.136q-15.36 0-25.6 11.264t-11.264 25.6v273.408q0 1.024 0 2.048t0 2.048l328.704 270.336 328.704-270.336q1.024-1.024 1.024-4.096zM931.84 336.64l-34.816-41.984q-5.12-5.12-12.288-6.144h-2.048q-7.168 0-12.288 3.072l-395.264 329.728-395.264-329.728q-7.168-4.096-13.312-3.072-7.168 1.024-12.288 6.144l-35.84 41.984q-4.096 6.144-3.072 13.312t6.144 12.288l410.624 342.016q18.432 15.36 43.008 15.36t44.032-15.36l139.264-115.712v110.592q0 8.192 5.12 13.312t13.312 5.12h109.568q8.192 0 13.312-5.12t5.12-13.312v-232.448l124.928-104.448q6.144-4.096 6.144-12.288t-4.096-13.312z" />
<glyph unicode="&#xe813;" glyph-name="info-circled" horiz-adv-x="878" d="M584.704 77.568v91.136q0 8.192-5.12 13.312t-12.288 5.12h-55.296v292.864q0 8.192-5.12 13.312t-13.312 5.12h-182.272q-8.192 0-13.312-5.12t-5.12-13.312v-91.136q0-8.192 5.12-13.312t13.312-5.12h54.272v-183.296h-54.272q-8.192 0-13.312-5.12t-5.12-13.312v-91.136q0-8.192 5.12-13.312t13.312-5.12h256q7.168 0 12.288 5.12t5.12 13.312zM512 589.568v91.136q0 8.192-5.12 13.312t-13.312 5.12h-109.568q-8.192 0-13.312-5.12t-5.12-13.312v-91.136q0-8.192 5.12-13.312t13.312-5.12h109.568q8.192 0 13.312 5.12t5.12 13.312zM877.568 352q0-119.808-58.368-220.16t-159.744-159.744-220.16-59.392-221.184 59.392-158.72 159.744-59.392 220.16 59.392 220.16 158.72 159.744 221.184 59.392 220.16-59.392 159.744-159.744 58.368-220.16z" />
<glyph unicode="&#xe814;" glyph-name="cog-alt" horiz-adv-x="1097" d="M512 352q0 60.416-43.008 103.424t-103.424 43.008-103.424-43.008-43.008-103.424 43.008-103.424 103.424-43.008 103.424 43.008 43.008 103.424zM951.296 59.136q0 29.696-22.528 52.224t-51.2 21.504-51.2-21.504-21.504-52.224q0-29.696 21.504-51.2t51.2-21.504 52.224 21.504 21.504 51.2zM951.296 644.864q0 29.696-22.528 51.2t-51.2 21.504-51.2-21.504-21.504-51.2q0-30.72 21.504-52.224t51.2-21.504 52.224 21.504 21.504 52.224zM731.136 404.224v-105.472q0-6.144-4.096-11.264t-8.192-6.144l-89.088-14.336q-6.144-19.456-18.432-43.008 19.456-27.648 51.2-65.536 4.096-6.144 4.096-11.264 0-7.168-4.096-11.264-12.288-17.408-47.104-51.2t-44.032-33.792q-7.168 0-12.288 4.096l-65.536 51.2q-21.504-11.264-44.032-17.408-6.144-61.44-13.312-89.088-4.096-13.312-17.408-13.312h-106.496q-6.144 0-11.264 4.096t-5.12 10.24l-13.312 87.040q-19.456 6.144-43.008 18.432l-67.584-51.2q-4.096-4.096-11.264-4.096-6.144 0-12.288 4.096-81.92 76.8-81.92 92.16 0 5.12 4.096 10.24 5.12 8.192 23.552 30.72t26.624 34.816q-13.312 24.576-20.48 47.104l-87.040 13.312q-5.12 1.024-9.216 5.12t-4.096 11.264v106.496q0 5.12 4.096 10.24t9.216 6.144l88.064 14.336q7.168 19.456 18.432 43.008-19.456 27.648-51.2 65.536-4.096 6.144-4.096 11.264 0 7.168 4.096 12.288 12.288 16.384 47.104 50.176t45.056 33.792q6.144 0 12.288-4.096l65.536-51.2q19.456 10.24 44.032 18.432 6.144 61.44 13.312 88.064 3.072 13.312 16.384 13.312h106.496q6.144 0 11.264-4.096t6.144-10.24l13.312-87.040q19.456-6.144 43.008-17.408l66.56 50.176q5.12 4.096 12.288 4.096 6.144 0 11.264-4.096 82.944-76.8 82.944-92.16 0-4.096-4.096-10.24-7.168-9.216-24.576-30.72t-25.6-34.816q13.312-27.648 19.456-47.104l87.040-12.288q6.144-2.048 9.216-6.144t4.096-11.264zM1096.704 99.072v-79.872q0-9.216-84.992-17.408-6.144-15.36-16.384-29.696 28.672-64.512 28.672-78.848 0-2.048-2.048-4.096-69.632-40.96-70.656-40.96-5.12 0-26.624 27.648t-29.696 37.888q-11.264-1.024-17.408-1.024t-17.408 1.024q-7.168-11.264-29.696-37.888t-25.6-27.648q-1.024 0-70.656 40.96-3.072 2.048-3.072 4.096 0 14.336 29.696 78.848-10.24 14.336-17.408 29.696-84.992 8.192-84.992 17.408v79.872q0 9.216 84.992 18.432 7.168 16.384 17.408 29.696-29.696 64.512-29.696 78.848 0 2.048 3.072 4.096 2.048 1.024 19.456 11.264t33.792 19.456 17.408 9.216q4.096 0 25.6-26.624t29.696-38.912q12.288 1.024 17.408 1.024t17.408-1.024q28.672 40.96 52.224 64.512l4.096 1.024q2.048 0 70.656-39.936 2.048-2.048 2.048-4.096 0-14.336-28.672-78.848 9.216-13.312 16.384-29.696 84.992-9.216 84.992-18.432zM1096.704 684.8v-79.872q0-9.216-84.992-18.432-6.144-15.36-16.384-29.696 28.672-64.512 28.672-78.848 0-2.048-2.048-4.096-69.632-39.936-70.656-39.936-5.12 0-26.624 26.624t-29.696 38.912q-11.264-1.024-17.408-1.024t-17.408 1.024q-7.168-12.288-29.696-38.912t-25.6-26.624q-1.024 0-70.656 39.936-3.072 2.048-3.072 4.096 0 14.336 29.696 78.848-10.24 14.336-17.408 29.696-84.992 9.216-84.992 18.432v79.872q0 9.216 84.992 17.408 7.168 16.384 17.408 29.696-29.696 64.512-29.696 78.848 0 2.048 3.072 4.096 2.048 1.024 19.456 11.264t33.792 19.456 17.408 9.216q4.096 0 25.6-26.624t29.696-37.888q12.288 1.024 17.408 1.024t17.408-1.024q28.672 39.936 52.224 63.488l4.096 1.024q2.048 0 70.656-39.936 2.048-2.048 2.048-4.096 0-14.336-28.672-78.848 9.216-13.312 16.384-29.696 84.992-8.192 84.992-17.408z" />
<glyph unicode="&#xe815;" glyph-name="attach" horiz-adv-x="804" d="M802.816 72.448q0-66.56-46.080-111.616t-111.616-45.056q-76.8 0-134.144 56.32l-444.416 444.416q-64.512 65.536-64.512 154.624 0 91.136 63.488 153.6t153.6 63.488q90.112 0 155.648-64.512l346.112-346.112q5.12-5.12 5.12-12.288 0-9.216-17.408-26.624t-26.624-17.408q-7.168 0-12.288 5.12l-347.136 347.136q-45.056 44.032-103.424 44.032-60.416 0-102.4-43.008t-40.96-103.424q0-59.392 43.008-103.424l443.392-443.392q35.84-36.864 82.944-36.864 36.864 0 60.416 24.576t24.576 60.416q0 47.104-35.84 82.944l-332.8 331.776q-14.336 14.336-33.792 14.336-16.384 0-27.648-11.264t-11.264-27.648q0-18.432 14.336-33.792l234.496-233.472q6.144-6.144 6.144-13.312 0-9.216-18.432-26.624t-26.624-17.408q-6.144 0-12.288 5.12l-234.496 234.496q-35.84 34.816-35.84 84.992 0 47.104 32.768 79.872t78.848 32.768q50.176 0 86.016-35.84l331.776-332.8q57.344-55.296 57.344-134.144z" />
<glyph unicode="&#xe816;" glyph-name="tag" horiz-adv-x="878" d="M256 608q0 30.72-21.504 52.224t-51.2 20.48-52.224-20.48-21.504-52.224 21.504-51.2 52.224-21.504 51.2 21.504 21.504 51.2zM865.28 279.296q0-30.72-20.48-52.224l-280.576-280.576q-22.528-21.504-52.224-21.504-30.72 0-51.2 21.504l-408.576 408.576q-21.504 21.504-36.864 58.368t-15.36 66.56v237.568q0 29.696 21.504 51.2t51.2 22.528h238.592q29.696 0 66.56-15.36t58.368-36.864l408.576-408.576q20.48-21.504 20.48-51.2z" />
<glyph unicode="&#xe817;" glyph-name="lock" horiz-adv-x="657" d="M183.296 424.704h291.84v110.592q0 60.416-43.008 103.424t-103.424 41.984-103.424-41.984-41.984-103.424v-110.592zM658.432 370.432v-329.728q0-22.528-16.384-37.888t-38.912-16.384h-547.84q-23.552 0-38.912 16.384t-16.384 37.888v329.728q0 22.528 16.384 38.912t38.912 15.36h17.408v110.592q0 104.448 75.776 180.224t180.224 75.776 181.248-75.776 74.752-180.224v-110.592h18.432q23.552 0 38.912-15.36t16.384-38.912z" />
<glyph unicode="&#xe818;" glyph-name="thumbs-up" horiz-adv-x="878" d="M146.432 96q0 15.36-11.264 25.6t-25.6 11.264-25.6-11.264-11.264-25.6 11.264-25.6 25.6-11.264 25.6 11.264 11.264 25.6zM804.864 424.704q0 29.696-22.528 51.2t-51.2 22.528h-200.704q0 32.768 27.648 91.136t26.624 91.136q0 56.32-17.408 82.944t-73.728 27.648q-14.336-15.36-21.504-49.152t-17.408-71.68-33.792-62.464q-13.312-13.312-44.032-52.224-2.048-3.072-13.312-16.384t-18.432-23.552-19.456-24.576-22.528-25.6-22.528-19.456-22.528-15.36-20.48-6.144h-18.432v-365.568h18.432q7.168 0 18.432-1.024t18.432-4.096 21.504-6.144 20.48-7.168 20.48-6.144 16.384-6.144q120.832-41.984 195.584-41.984h68.608q109.568 0 109.568 95.232 0 15.36-2.048 31.744 16.384 9.216 26.624 30.72t10.24 41.984-10.24 38.912q29.696 28.672 29.696 68.608 0 14.336-5.12 31.744t-14.336 26.624q18.432 1.024 30.72 26.624t12.288 46.080zM877.568 425.728q0-51.2-27.648-93.184 5.12-18.432 5.12-38.912 0-44.032-21.504-82.944 1.024-12.288 1.024-24.576 0-57.344-33.792-101.376 0-79.872-49.152-125.952t-129.024-46.080h-73.728q-55.296 0-108.544 13.312t-123.904 36.864q-66.56 23.552-78.848 23.552h-164.864q-29.696 0-51.2 21.504t-21.504 51.2v365.568q0 30.72 21.504 52.224t51.2 21.504h156.672q20.48 13.312 78.848 88.064 32.768 43.008 61.44 73.728 13.312 14.336 19.456 49.152t17.408 71.68 35.84 61.44q22.528 21.504 51.2 21.504 48.128 0 86.016-18.432t58.368-58.368 20.48-106.496q0-52.224-27.648-109.568h100.352q59.392 0 103.424-43.008t43.008-102.4z" />
<glyph unicode="&#xe819;" glyph-name="thumbs-down" horiz-adv-x="878" d="M146.432 608q0 15.36-11.264 25.6t-25.6 11.264-25.6-11.264-11.264-25.6 11.264-25.6 25.6-11.264 25.6 11.264 11.264 25.6zM804.864 279.296q0 19.456-12.288 46.080t-30.72 26.624q8.192 10.24 14.336 27.648t5.12 31.744q0 38.912-29.696 67.584 10.24 17.408 10.24 38.912t-10.24 41.984-26.624 30.72q2.048 16.384 2.048 31.744 0 48.128-27.648 71.68t-77.824 23.552h-72.704q-74.752 0-195.584-41.984-3.072-1.024-16.384-5.12t-20.48-7.168-20.48-7.168-21.504-6.144-18.432-4.096-18.432-1.024h-18.432v-365.568h18.432q9.216 0 20.48-5.12t22.528-15.36 22.528-20.48 22.528-25.6 19.456-24.576 18.432-22.528 13.312-17.408q30.72-38.912 44.032-52.224 23.552-24.576 33.792-62.464t17.408-71.68 21.504-49.152q55.296 0 73.728 27.648t17.408 82.944q0 33.792-26.624 91.136t-27.648 91.136h200.704q28.672 0 51.2 22.528t22.528 51.2zM877.568 278.272q0-58.368-43.008-102.4t-103.424-43.008h-100.352q27.648-56.32 27.648-109.568 0-67.584-20.48-106.496-19.456-39.936-58.368-58.368t-86.016-18.432q-28.672 0-51.2 21.504-19.456 18.432-30.72 46.080t-14.336 52.224-10.24 48.128-17.408 36.864q-27.648 28.672-61.44 72.704-58.368 74.752-78.848 88.064h-156.672q-29.696 0-51.2 21.504t-21.504 52.224v365.568q0 29.696 21.504 51.2t51.2 21.504h164.864q12.288 0 78.848 23.552 73.728 24.576 128 36.864t113.664 13.312h64.512q79.872 0 129.024-45.056t49.152-123.904v-3.072q33.792-44.032 33.792-101.376 0-12.288-1.024-24.576 21.504-38.912 21.504-81.92 0-21.504-5.12-39.936 27.648-41.984 27.648-93.184z" />
<glyph unicode="&#xe81a;" glyph-name="bell" d="M521.216-104.704q0 8.192-9.216 8.192-33.792 0-58.368 24.576t-23.552 58.368q0 9.216-9.216 9.216t-9.216-9.216q0-41.984 29.696-71.68t70.656-28.672q9.216 0 9.216 9.216zM140.288 59.136h743.424q-152.576 172.032-152.576 476.16 0 28.672-13.312 59.392t-39.936 59.392-68.608 46.080-97.28 17.408-97.28-17.408-68.608-46.080-39.936-59.392-13.312-59.392q0-304.128-152.576-476.16zM987.136 59.136q0-29.696-21.504-51.2t-51.2-21.504h-256q0-60.416-43.008-103.424t-103.424-43.008-103.424 43.008-43.008 103.424h-256q-29.696 0-51.2 21.504t-21.504 51.2q28.672 24.576 52.224 50.176t48.128 68.608 43.008 91.136 27.648 117.76 11.264 148.48q0 86.016 67.584 160.768t175.104 91.136q-5.12 10.24-5.12 21.504 0 23.552 16.384 38.912t38.912 16.384 38.912-16.384 16.384-38.912q0-11.264-5.12-21.504 108.544-16.384 175.104-91.136t67.584-160.768q0-79.872 11.264-148.48t28.672-117.76 41.984-91.136 49.152-68.608 51.2-50.176z" />
<glyph unicode="&#xe81b;" glyph-name="chat" d="M804.864 424.704q0-78.848-54.272-146.432t-146.432-106.496-201.728-38.912q-49.152 0-100.352 9.216-71.68-50.176-158.72-73.728-21.504-5.12-49.152-9.216h-2.048q-6.144 0-12.288 5.12t-6.144 12.288q-1.024 1.024-1.024 3.072t1.024 4.096 1.024 3.072l1.024 3.072t2.048 3.072 2.048 3.072 3.072 3.072 2.048 2.048q3.072 3.072 13.312 14.336t15.36 16.384 12.288 17.408 14.336 21.504 11.264 25.6q-70.656 40.96-110.592 100.352t-40.96 128q0 79.872 54.272 147.456t146.432 106.496 201.728 38.912 201.728-38.912 146.432-106.496 54.272-147.456zM1024 279.296q0-68.608-40.96-129.024t-110.592-100.352q5.12-14.336 11.264-25.6t14.336-21.504 13.312-16.384 14.336-17.408 13.312-14.336q0 0 2.048-2.048t3.072-3.072 2.048-3.072 2.048-3.072l1.024-3.072t1.024-3.072 1.024-4.096-1.024-3.072q-2.048-8.192-7.168-13.312t-12.288-4.096q-28.672 4.096-49.152 9.216-88.064 23.552-159.744 73.728-51.2-9.216-100.352-9.216-154.624 0-269.312 75.776 32.768-3.072 50.176-3.072 92.16 0 176.128 25.6t151.552 73.728q70.656 53.248 109.568 121.856t37.888 144.384q0 44.032-13.312 87.040 73.728-39.936 116.736-101.376t43.008-131.072z" />
<glyph unicode="&#xe81c;" glyph-name="comment" d="M1024 352q0-99.328-68.608-183.296t-186.368-133.12-257.024-49.152q-39.936 0-82.944 4.096-112.64-99.328-263.168-138.24-27.648-8.192-64.512-12.288-10.24-1.024-17.408 5.12t-10.24 16.384v1.024q-2.048 2.048 0 6.144t1.024 6.144 2.048 5.12l4.096 5.12t4.096 5.12 4.096 5.12q4.096 5.12 17.408 19.456t20.48 22.528 17.408 22.528 18.432 28.672 15.36 33.792 15.36 43.008q-90.112 51.2-141.312 125.952t-52.224 160.768q0 74.752 40.96 142.336t108.544 116.736 163.84 77.824 198.656 28.672q139.264 0 257.024-49.152t186.368-133.12 68.608-183.296z" />
<glyph unicode="&#xe81d;" glyph-name="edit" d="M507.904 187.136l65.536 66.56-87.040 87.040-65.536-66.56v-31.744h54.272v-55.296h32.768zM758.784 598.784q-9.216 9.216-18.432 0l-200.704-200.704q-9.216-9.216 0-18.432t18.432 0l200.704 200.704q9.216 9.216 0 18.432zM804.864 259.84v-108.544q0-68.608-48.128-116.736t-116.736-48.128h-475.136q-68.608 0-116.736 48.128t-48.128 116.736v475.136q0 67.584 48.128 115.712t116.736 49.152h475.136q35.84 0 66.56-14.336 9.216-4.096 10.24-13.312 2.048-10.24-5.12-16.384l-27.648-28.672q-8.192-8.192-18.432-4.096-13.312 3.072-25.6 3.072h-475.136q-37.888 0-64.512-26.624t-27.648-64.512v-475.136q0-37.888 27.648-64.512t64.512-27.648h475.136q37.888 0 64.512 27.648t26.624 64.512v71.68q0 7.168 5.12 12.288l36.864 36.864q8.192 8.192 20.48 4.096t11.264-16.384zM749.568 680.704l164.864-163.84-384-384h-164.864v163.84zM1003.52 605.952l-52.224-53.248-164.864 164.864 52.224 53.248q16.384 15.36 38.912 15.36t38.912-15.36l87.040-87.040q16.384-16.384 16.384-38.912t-16.384-38.912z" />
<glyph unicode="&#xe81e;" glyph-name="pencil" horiz-adv-x="878" d="M207.872-13.568l51.2 52.224-134.144 134.144-52.224-52.224v-61.44h73.728v-72.704h61.44zM505.856 516.864q0 12.288-12.288 12.288-5.12 0-9.216-4.096l-310.272-309.248q-4.096-4.096-4.096-10.24 0-12.288 13.312-12.288 5.12 0 9.216 4.096l310.272 309.248q3.072 4.096 3.072 10.24zM475.136 626.432l237.568-237.568-475.136-476.16h-237.568v238.592zM865.28 571.136q0-29.696-20.48-51.2l-95.232-95.232-237.568 238.592 95.232 94.208q20.48 21.504 51.2 21.504 29.696 0 52.224-21.504l134.144-134.144q20.48-22.528 20.48-52.224z" />
<glyph unicode="&#xe81f;" glyph-name="attention-circled" horiz-adv-x="878" d="M439.296 791.296q118.784 0 220.16-59.392t159.744-159.744 58.368-220.16-58.368-220.16-159.744-159.744-220.16-59.392-221.184 59.392-158.72 159.744-59.392 220.16 59.392 220.16 158.72 159.744 221.184 59.392zM512 78.592v108.544q0 8.192-5.12 13.312t-12.288 5.12h-109.568q-8.192 0-13.312-5.12t-6.144-13.312v-108.544q0-8.192 6.144-13.312t13.312-6.144h109.568q7.168 0 12.288 6.144t5.12 13.312zM510.976 275.2l10.24 354.304q0 7.168-6.144 10.24-5.12 5.12-13.312 5.12h-125.952q-8.192 0-13.312-5.12-6.144-3.072-6.144-10.24l10.24-354.304q0-6.144 5.12-10.24t14.336-4.096h105.472q8.192 0 13.312 4.096t6.144 10.24z" />
<glyph unicode="&#xe820;" glyph-name="doc" horiz-adv-x="878" d="M838.656 646.912q16.384-16.384 27.648-43.008t11.264-51.2v-657.408q0-23.552-15.36-38.912t-38.912-16.384h-768q-23.552 0-38.912 16.384t-16.384 38.912v913.408q0 23.552 16.384 38.912t38.912 16.384h512q22.528 0 50.176-11.264t43.008-27.648zM584.704 786.176v-215.040h215.040q-5.12 17.408-12.288 23.552l-179.2 179.2q-6.144 7.168-23.552 12.288zM804.864-87.296v585.728h-237.568q-23.552 0-38.912 16.384t-16.384 37.888v238.592h-439.296v-878.592h732.16z" />
<glyph unicode="&#xe821;" glyph-name="cog" horiz-adv-x="878" d="M584.704 352q0 60.416-41.984 103.424t-103.424 43.008-103.424-43.008-43.008-103.424 43.008-103.424 103.424-43.008 103.424 43.008 41.984 103.424zM877.568 414.464v-126.976q0-7.168-4.096-13.312t-11.264-7.168l-106.496-16.384q-10.24-30.72-21.504-52.224 19.456-27.648 60.416-78.848 6.144-6.144 6.144-13.312t-5.12-13.312q-15.36-21.504-56.32-62.464t-54.272-39.936q-7.168 0-14.336 5.12l-78.848 61.44q-25.6-13.312-52.224-21.504-9.216-77.824-16.384-106.496-4.096-16.384-20.48-16.384h-126.976q-8.192 0-14.336 5.12t-6.144 12.288l-16.384 105.472q-27.648 9.216-51.2 21.504l-80.896-61.44q-6.144-5.12-14.336-5.12t-14.336 6.144q-71.68 65.536-94.208 96.256-4.096 5.12-4.096 13.312 0 6.144 5.12 12.288 8.192 12.288 28.672 37.888t30.72 40.96q-15.36 28.672-23.552 56.32l-104.448 15.36q-7.168 1.024-11.264 7.168t-5.12 13.312v126.976q0 7.168 5.12 13.312t10.24 7.168l106.496 16.384q8.192 25.6 22.528 52.224-23.552 32.768-61.44 78.848-6.144 7.168-6.144 14.336 0 5.12 5.12 12.288 15.36 20.48 56.32 61.44t54.272 40.96q7.168 0 15.36-5.12l78.848-61.44q24.576 13.312 51.2 21.504 9.216 77.824 17.408 106.496 3.072 16.384 20.48 16.384h126.976q7.168 0 13.312-5.12t7.168-12.288l15.36-105.472q28.672-9.216 52.224-20.48l80.896 60.416q5.12 5.12 13.312 5.12 7.168 0 14.336-5.12 73.728-68.608 94.208-97.28 4.096-5.12 4.096-12.288t-4.096-13.312q-9.216-12.288-29.696-37.888t-30.72-40.96q15.36-28.672 23.552-55.296l104.448-16.384q7.168-1.024 12.288-7.168t4.096-13.312z" />
<glyph unicode="&#xe822;" glyph-name="wrench" horiz-adv-x="950" d="M219.136 23.296q0 14.336-10.24 25.6t-25.6 10.24-25.6-10.24-11.264-25.6 11.264-25.6 25.6-11.264 25.6 11.264 10.24 25.6zM587.776 262.912l-390.144-390.144q-21.504-20.48-51.2-20.48t-52.224 20.48l-60.416 62.464q-21.504 20.48-21.504 51.2 0 29.696 21.504 52.224l389.12 389.12q22.528-56.32 65.536-99.328t99.328-65.536zM950.272 511.744q0-22.528-13.312-60.416-27.648-76.8-94.208-124.928t-147.456-47.104q-106.496 0-181.248 74.752t-74.752 181.248 74.752 180.224 181.248 75.776q32.768 0 68.608-10.24t61.44-26.624q9.216-6.144 9.216-15.36t-9.216-16.384l-166.912-96.256v-128l110.592-61.44q2.048 2.048 45.056 27.648t76.8 46.080 40.96 20.48q8.192 0 13.312-5.12t5.12-14.336z" />
<glyph unicode="&#xe823;" glyph-name="basket" horiz-adv-x="950" d="M365.568-13.568q0-29.696-21.504-51.2t-51.2-22.528-51.2 22.528-22.528 51.2 22.528 51.2 51.2 21.504 51.2-21.504 21.504-51.2zM877.568-13.568q0-29.696-21.504-51.2t-51.2-22.528-51.2 22.528-22.528 51.2 22.528 51.2 51.2 21.504 51.2-21.504 21.504-51.2zM951.296 608v-292.864q0-13.312-10.24-23.552t-22.528-12.288l-596.992-69.632q7.168-34.816 7.168-40.96 0-8.192-13.312-35.84h525.312q15.36 0 26.624-11.264t10.24-25.6-10.24-25.6-26.624-11.264h-584.704q-14.336 0-25.6 11.264t-11.264 25.6q0 6.144 5.12 18.432t9.216 20.48 12.288 22.528 8.192 17.408l-100.352 470.016h-116.736q-15.36 0-25.6 10.24t-11.264 25.6 11.264 26.624 25.6 10.24h146.432q9.216 0 16.384-3.072t10.24-9.216 8.192-14.336 4.096-14.336 3.072-17.408 3.072-14.336h686.080q14.336 0 25.6-11.264t11.264-25.6z" />
<glyph unicode="&#xe824;" glyph-name="calendar" horiz-adv-x="950" d="M72.704-87.296h164.864v164.864h-164.864v-164.864zM274.432-87.296h182.272v164.864h-182.272v-164.864zM72.704 114.432h164.864v182.272h-164.864v-182.272zM274.432 114.432h182.272v182.272h-182.272v-182.272zM72.704 333.568h164.864v164.864h-164.864v-164.864zM493.568-87.296h183.296v164.864h-183.296v-164.864zM274.432 333.568h182.272v164.864h-182.272v-164.864zM712.704-87.296h164.864v164.864h-164.864v-164.864zM493.568 114.432h183.296v182.272h-183.296v-182.272zM292.864 608v164.864q0 7.168-6.144 12.288t-12.288 6.144h-36.864q-7.168 0-12.288-6.144t-6.144-12.288v-164.864q0-7.168 6.144-13.312t12.288-5.12h36.864q7.168 0 12.288 5.12t6.144 13.312zM712.704 114.432h164.864v182.272h-164.864v-182.272zM493.568 333.568h183.296v164.864h-183.296v-164.864zM712.704 333.568h164.864v164.864h-164.864v-164.864zM731.136 608v164.864q0 7.168-5.12 12.288t-13.312 6.144h-35.84q-7.168 0-13.312-6.144t-5.12-12.288v-164.864q0-7.168 5.12-13.312t13.312-5.12h35.84q8.192 0 13.312 5.12t5.12 13.312zM951.296 644.864v-732.16q0-29.696-22.528-51.2t-51.2-21.504h-804.864q-29.696 0-51.2 21.504t-21.504 51.2v732.16q0 29.696 21.504 51.2t51.2 21.504h73.728v55.296q0 37.888 26.624 64.512t64.512 26.624h36.864q37.888 0 64.512-26.624t26.624-64.512v-55.296h219.136v55.296q0 37.888 27.648 64.512t64.512 26.624h35.84q37.888 0 65.536-26.624t26.624-64.512v-55.296h72.704q29.696 0 51.2-21.504t22.528-51.2z" />
<glyph unicode="&#xe825;" glyph-name="zoom-out" horiz-adv-x="950" d="M584.704 407.296v-36.864q0-7.168-5.12-13.312t-12.288-5.12h-329.728q-7.168 0-12.288 5.12t-6.144 13.312v36.864q0 7.168 6.144 12.288t12.288 5.12h329.728q7.168 0 12.288-5.12t5.12-12.288zM658.432 388.864q0 105.472-74.752 180.224t-181.248 75.776-181.248-75.776-74.752-180.224 74.752-181.248 181.248-74.752 181.248 74.752 74.752 181.248zM951.296-87.296q0-29.696-21.504-51.2t-52.224-21.504-51.2 21.504l-195.584 195.584q-102.4-70.656-228.352-70.656-81.92 0-156.672 31.744t-128 86.016-86.016 128-31.744 156.672 31.744 155.648 86.016 129.024 128 86.016 156.672 31.744 156.672-31.744 128-86.016 86.016-129.024 31.744-155.648q0-125.952-70.656-228.352l195.584-195.584q21.504-21.504 21.504-52.224z" />
<glyph unicode="&#xe826;" glyph-name="zoom-in" horiz-adv-x="950" d="M584.704 407.296v-36.864q0-7.168-5.12-13.312t-12.288-5.12h-128v-128q0-7.168-6.144-13.312t-12.288-5.12h-36.864q-7.168 0-13.312 5.12t-5.12 13.312v128h-128q-7.168 0-12.288 5.12t-6.144 13.312v36.864q0 7.168 6.144 12.288t12.288 5.12h128v128q0 8.192 5.12 13.312t13.312 5.12h36.864q7.168 0 12.288-5.12t6.144-13.312v-128h128q7.168 0 12.288-5.12t5.12-12.288zM658.432 388.864q0 105.472-74.752 180.224t-181.248 75.776-181.248-75.776-74.752-180.224 74.752-181.248 181.248-74.752 181.248 74.752 74.752 181.248zM951.296-87.296q0-29.696-21.504-51.2t-52.224-21.504-51.2 21.504l-195.584 195.584q-102.4-70.656-228.352-70.656-81.92 0-156.672 31.744t-128 86.016-86.016 128-31.744 156.672 31.744 155.648 86.016 129.024 128 86.016 156.672 31.744 156.672-31.744 128-86.016 86.016-129.024 31.744-155.648q0-125.952-70.656-228.352l195.584-195.584q21.504-21.504 21.504-52.224z" />
<glyph unicode="&#xe827;" glyph-name="resize-full" horiz-adv-x="878" d="M431.104 260.864q0-7.168-5.12-13.312l-189.44-189.44 81.92-82.944q10.24-10.24 10.24-25.6t-10.24-25.6-25.6-11.264h-256q-15.36 0-25.6 11.264t-11.264 25.6v256q0 15.36 11.264 25.6t25.6 11.264 25.6-11.264l81.92-81.92 190.464 189.44q5.12 6.144 12.288 6.144t13.312-6.144l65.536-64.512q5.12-6.144 5.12-13.312zM877.568 754.432v-256q0-15.36-10.24-25.6t-26.624-11.264-25.6 11.264l-81.92 81.92-189.44-189.44q-6.144-6.144-13.312-6.144t-13.312 6.144l-65.536 65.536q-5.12 5.12-5.12 12.288t5.12 13.312l190.464 189.44-82.944 82.944q-10.24 10.24-10.24 25.6t10.24 25.6 25.6 11.264h256q15.36 0 26.624-11.264t10.24-25.6z" />
<glyph unicode="&#xe828;" glyph-name="login" horiz-adv-x="878" d="M676.864 352q0-14.336-11.264-25.6l-310.272-311.296q-11.264-10.24-26.624-10.24t-25.6 10.24-10.24 25.6v164.864h-256q-15.36 0-25.6 11.264t-11.264 25.6v219.136q0 15.36 11.264 25.6t25.6 11.264h256v164.864q0 14.336 10.24 25.6t25.6 10.24 26.624-10.24l310.272-311.296q11.264-10.24 11.264-25.6zM877.568 552.704v-401.408q0-68.608-48.128-116.736t-116.736-48.128h-182.272q-7.168 0-13.312 5.12t-5.12 13.312q0 2.048-1.024 11.264t0 15.36 2.048 13.312 5.12 11.264 12.288 3.072h182.272q37.888 0 65.536 27.648t26.624 64.512v401.408q0 37.888-26.624 65.536t-65.536 26.624h-178.176t-6.144 0-6.144 2.048-5.12 3.072-4.096 5.12-1.024 8.192q0 2.048-1.024 11.264t0 15.36 2.048 13.312 5.12 11.264 12.288 3.072h182.272q68.608 0 116.736-48.128t48.128-116.736z" />
<glyph unicode="&#xe829;" glyph-name="logout" horiz-adv-x="950" d="M365.568 40.704q0-2.048 1.024-11.264t0-14.336-2.048-14.336-5.12-11.264-12.288-3.072h-182.272q-68.608 0-116.736 48.128t-48.128 116.736v401.408q0 68.608 48.128 116.736t116.736 48.128h182.272q8.192 0 13.312-5.12t5.12-13.312q0-2.048 1.024-11.264t0-15.36-2.048-13.312-5.12-11.264-12.288-3.072h-182.272q-37.888 0-64.512-26.624t-27.648-65.536v-401.408q0-37.888 27.648-64.512t64.512-27.648h178.176t6.144 0 7.168-2.048 4.096-3.072 4.096-5.12 1.024-8.192zM896 352q0-14.336-11.264-25.6l-310.272-311.296q-11.264-10.24-25.6-10.24t-25.6 10.24-11.264 25.6v164.864h-256q-14.336 0-25.6 11.264t-11.264 25.6v219.136q0 15.36 11.264 25.6t25.6 11.264h256v164.864q0 14.336 11.264 25.6t25.6 10.24 25.6-10.24l310.272-311.296q11.264-10.24 11.264-25.6z" />
<glyph unicode="&#xe82a;" glyph-name="right-open" horiz-adv-x="731" d="M632.832 363.264l-423.936-424.96q-11.264-10.24-25.6-10.24t-25.6 10.24l-95.232 95.232q-11.264 11.264-11.264 25.6t11.264 25.6l303.104 304.128-303.104 303.104q-11.264 11.264-11.264 25.6t11.264 25.6l95.232 95.232q10.24 11.264 25.6 11.264t25.6-11.264l423.936-423.936q10.24-11.264 10.24-25.6t-10.24-25.6z" />
<glyph unicode="&#xe82b;" glyph-name="left-open" horiz-adv-x="731" d="M669.696 691.968l-304.128-303.104 304.128-304.128q10.24-10.24 10.24-25.6t-10.24-25.6l-95.232-95.232q-11.264-10.24-25.6-10.24t-25.6 10.24l-423.936 424.96q-11.264 10.24-11.264 25.6t11.264 25.6l423.936 423.936q10.24 11.264 25.6 11.264t25.6-11.264l95.232-95.232q10.24-10.24 10.24-25.6t-10.24-25.6z" />
<glyph unicode="&#xe82c;" glyph-name="down-big" horiz-adv-x="950" d="M920.576 388.864q0-30.72-21.504-51.2l-371.712-372.736q-22.528-21.504-52.224-21.504t-51.2 21.504l-371.712 372.736q-21.504 20.48-21.504 51.2 0 29.696 21.504 52.224l41.984 41.984q22.528 21.504 52.224 21.504t51.2-21.504l167.936-167.936v402.432q0 29.696 21.504 51.2t52.224 22.528h72.704q29.696 0 51.2-22.528t21.504-51.2v-402.432l168.96 167.936q20.48 21.504 51.2 21.504 29.696 0 52.224-21.504l41.984-41.984q21.504-22.528 21.504-52.224z" />
<glyph unicode="&#xe82d;" glyph-name="left-big" horiz-adv-x="878" d="M877.568 352v-72.704q0-30.72-18.432-52.224t-48.128-21.504h-402.432l167.936-167.936q21.504-20.48 21.504-51.2t-21.504-51.2l-43.008-44.032q-21.504-20.48-52.224-20.48-29.696 0-51.2 20.48l-372.736 372.736q-20.48 21.504-20.48 51.2t20.48 52.224l372.736 371.712q21.504 21.504 51.2 21.504t52.224-21.504l43.008-41.984q21.504-22.528 21.504-52.224t-21.504-52.224l-167.936-167.936h402.432q29.696 0 48.128-20.48t18.432-52.224z" />
<glyph unicode="&#xe82e;" glyph-name="right-big" horiz-adv-x="878" d="M840.704 315.136q0-30.72-20.48-51.2l-371.712-372.736q-22.528-20.48-52.224-20.48t-51.2 20.48l-43.008 43.008q-22.528 21.504-22.528 52.224t22.528 52.224l166.912 166.912h-402.432q-29.696 0-48.128 21.504t-18.432 52.224v72.704q0 30.72 18.432 52.224t48.128 20.48h402.432l-166.912 168.96q-22.528 20.48-22.528 51.2t22.528 51.2l43.008 43.008q21.504 21.504 51.2 21.504t52.224-21.504l371.712-371.712q20.48-20.48 20.48-52.224z" />
<glyph unicode="&#xe82f;" glyph-name="up-big" horiz-adv-x="950" d="M920.576 308.992q0-28.672-21.504-51.2l-41.984-43.008q-22.528-21.504-52.224-21.504-30.72 0-51.2 21.504l-168.96 167.936v-402.432q0-29.696-20.48-48.128t-52.224-19.456h-72.704q-30.72 0-52.224 19.456t-21.504 48.128v402.432l-167.936-167.936q-20.48-21.504-51.2-21.504t-51.2 21.504l-43.008 43.008q-21.504 21.504-21.504 51.2 0 30.72 21.504 52.224l371.712 371.712q20.48 21.504 51.2 21.504t52.224-21.504l371.712-371.712q21.504-22.528 21.504-52.224z" />
<glyph unicode="&#xe830;" glyph-name="award" horiz-adv-x="950" d="M262.144 359.168q-43.008 93.184-43.008 211.968h-146.432v-54.272q0-45.056 54.272-93.184t135.168-64.512zM877.568 516.864v54.272h-146.432q0-118.784-41.984-211.968 80.896 16.384 134.144 64.512t54.272 93.184zM951.296 589.568v-72.704q0-40.96-24.576-81.92t-63.488-74.752-99.328-55.296-122.88-25.6q-23.552-30.72-54.272-54.272-21.504-19.456-29.696-40.96t-8.192-51.2q0-30.72 17.408-52.224t55.296-21.504q43.008 0 76.8-25.6t32.768-65.536v-36.864q0-8.192-5.12-13.312t-13.312-5.12h-475.136q-8.192 0-13.312 5.12t-5.12 13.312v36.864q0 39.936 33.792 65.536t75.776 25.6q38.912 0 56.32 21.504t17.408 52.224q0 28.672-8.192 51.2t-29.696 40.96q-30.72 23.552-54.272 54.272-65.536 3.072-123.904 25.6t-98.304 55.296-64.512 74.752-23.552 81.92v72.704q0 23.552 16.384 38.912t38.912 16.384h163.84v54.272q0 37.888 27.648 64.512t64.512 27.648h328.704q37.888 0 64.512-27.648t26.624-64.512v-54.272h164.864q22.528 0 38.912-16.384t16.384-38.912z" />
<glyph unicode="&#xe831;" glyph-name="inbox" horiz-adv-x="878" d="M584.704 315.136h180.224q0 2.048-1.024 5.12t-2.048 4.096l-120.832 283.648h-404.48l-120.832-283.648q-1.024-1.024-2.048-4.096t-1.024-5.12h180.224l54.272-109.568h183.296zM877.568 298.752v-275.456q0-15.36-10.24-25.6t-26.624-11.264h-803.84q-15.36 0-25.6 11.264t-11.264 25.6v275.456q0 34.816 14.336 69.632l136.192 315.392q5.12 14.336 20.48 24.576t29.696 9.216h476.16q14.336 0 29.696-9.216t20.48-24.576l136.192-315.392q14.336-34.816 14.336-69.632z" />
<glyph unicode="&#xe832;" glyph-name="globe" horiz-adv-x="878" d="M439.296 791.296q118.784 0 220.16-59.392t159.744-159.744 58.368-220.16-58.368-220.16-159.744-159.744-220.16-59.392-221.184 59.392-158.72 159.744-59.392 220.16 59.392 220.16 158.72 159.744 221.184 59.392zM595.968 493.312q-2.048-1.024-6.144-5.12t-7.168-6.144q1.024 0 2.048 3.072t3.072 6.144 2.048 4.096q3.072 4.096 12.288 8.192 8.192 4.096 29.696 7.168 19.456 5.12 29.696-6.144-1.024 1.024 5.12 7.168t8.192 7.168 8.192 3.072 9.216 4.096l1.024 12.288q-7.168-1.024-10.24 4.096t-3.072 12.288q0-2.048-4.096-5.12 0 4.096-2.048 5.12t-7.168-1.024-5.12-1.024q-5.12 2.048-8.192 5.12t-5.12 9.216-2.048 8.192q-1.024 3.072-5.12 6.144t-5.12 6.144q-1.024 1.024-2.048 3.072t-1.024 4.096-3.072 3.072-3.072 1.024-4.096-3.072-4.096-5.12-2.048-3.072q-2.048 1.024-4.096 1.024t-2.048-1.024-3.072-1.024-3.072-2.048q-1.024-2.048-4.096-2.048t-5.12-1.024q8.192 3.072-1.024 6.144-5.12 2.048-9.216 2.048 6.144 2.048 5.12 6.144t-5.12 8.192h3.072q-1.024 2.048-5.12 5.12t-10.24 5.12-7.168 3.072q-5.12 3.072-19.456 5.12t-18.432 1.024q-3.072-4.096-3.072-6.144t2.048-8.192 2.048-7.168q1.024-3.072-3.072-7.168t-3.072-7.168q0-4.096 7.168-9.216t6.144-12.288q-2.048-4.096-9.216-9.216t-9.216-6.144q-3.072-5.12-1.024-11.264t6.144-9.216q1.024-1.024 1.024-2.048t-2.048-3.072-3.072-2.048-4.096-2.048l-1.024-1.024q-7.168-3.072-12.288 3.072t-7.168 15.36q-4.096 14.336-9.216 17.408-13.312 4.096-16.384-1.024-3.072 7.168-23.552 15.36-14.336 5.12-33.792 2.048 4.096 0 0 8.192-4.096 9.216-10.24 7.168 1.024 3.072 2.048 10.24t0 7.168q2.048 8.192 7.168 13.312 1.024 1.024 4.096 5.12t5.12 7.168 1.024 4.096q19.456-3.072 28.672 6.144 2.048 3.072 6.144 9.216t6.144 10.24q5.12 3.072 8.192 3.072t8.192-3.072 8.192-3.072q8.192-1.024 8.192 6.144t-4.096 11.264q7.168 0 2.048 10.24-2.048 4.096-5.12 5.12-6.144 2.048-15.36-3.072-4.096-2.048 2.048-4.096-1.024 0-6.144-6.144t-9.216-10.24-9.216 3.072q0 0-3.072 7.168t-5.12 8.192q-5.12 0-9.216-9.216 1.024 5.12-6.144 9.216t-14.336 4.096q11.264 7.168-4.096 15.36-4.096 3.072-12.288 3.072t-11.264-2.048q-2.048-4.096-3.072-7.168t3.072-4.096 6.144-3.072 6.144-2.048 5.12-2.048q8.192-6.144 5.12-8.192-1.024 0-5.12-2.048t-6.144-2.048-4.096-2.048q-1.024-3.072 0-8.192t-1.024-8.192q-3.072 3.072-5.12 10.24t-4.096 9.216q4.096-5.12-14.336-3.072h-5.12q-3.072 0-9.216-1.024t-12.288-1.024-7.168 5.12q-3.072 4.096 0 11.264 0 2.048 2.048 1.024-2.048 2.048-6.144 5.12t-6.144 5.12q-25.6-8.192-53.248-23.552 3.072 0 6.144 1.024t8.192 4.096 5.12 3.072q19.456 7.168 24.576 4.096l3.072 2.048q7.168-9.216 11.264-14.336-4.096 3.072-17.408 1.024-11.264-3.072-12.288-7.168 4.096-6.144 2.048-10.24-2.048 2.048-6.144 6.144t-8.192 6.144-8.192 3.072q-9.216 0-13.312-1.024-82.944-46.080-134.144-126.976 4.096-4.096 7.168-4.096 2.048-1.024 3.072-5.12t1.024-6.144 6.144 1.024q5.12-4.096 2.048-10.24 1.024 0 25.6-15.36 10.24-10.24 11.264-12.288 2.048-6.144-5.12-10.24-1.024 1.024-5.12 5.12t-5.12 2.048q-2.048-3.072 0-10.24t6.144-7.168q-4.096 0-5.12-9.216t-2.048-20.48 0-13.312l1.024-1.024q-2.048-6.144 3.072-19.456t12.288-11.264q-7.168-1.024 11.264-24.576 3.072-4.096 4.096-5.12 2.048-1.024 7.168-4.096t9.216-6.144 5.12-5.12q2.048-3.072 6.144-13.312t8.192-13.312q-2.048-3.072 5.12-11.264t6.144-13.312q-1.024 0-2.048-1.024t-1.024 0q2.048-4.096 9.216-8.192t8.192-7.168q1.024-2.048 1.024-6.144t2.048-6.144 4.096-1.024q2.048 11.264-13.312 35.84-8.192 13.312-9.216 16.384-2.048 2.048-4.096 8.192t-2.048 8.192q1.024 0 3.072 0t5.12-2.048 4.096-3.072 1.024-1.024q-1.024-4.096 1.024-10.24t7.168-10.24 10.24-11.264 6.144-7.168q4.096-4.096 8.192-11.264t0-8.192q5.12 0 11.264-5.12t10.24-11.264q3.072-5.12 4.096-15.36t3.072-13.312q1.024-4.096 5.12-8.192t7.168-5.12l9.216-5.12t7.168-3.072q3.072-2.048 10.24-6.144t12.288-7.168q6.144-2.048 9.216-2.048t8.192 1.024 8.192 2.048q8.192 1.024 16.384-8.192t12.288-12.288q20.48-10.24 30.72-6.144-1.024 0 1.024-4.096t4.096-9.216 5.12-8.192 3.072-5.12q3.072-3.072 10.24-8.192t10.24-8.192q4.096 2.048 4.096 5.12-1.024-5.12 4.096-11.264t10.24-6.144q8.192 2.048 8.192 18.432-17.408-8.192-27.648 10.24 0 0-2.048 3.072t-2.048 5.12-1.024 4.096 0 5.12 2.048 1.024q5.12 0 6.144 2.048t-1.024 7.168-2.048 8.192q-1.024 4.096-6.144 11.264t-7.168 8.192q-3.072-5.12-9.216-4.096t-9.216 5.12q0-1.024-1.024-3.072t-1.024-4.096q-7.168 0-8.192 0 1.024 2.048 1.024 10.24t2.048 13.312q1.024 2.048 3.072 6.144t5.12 9.216 2.048 7.168-3.072 5.12-9.216 1.024q-11.264 0-15.36-11.264-1.024-2.048-2.048-6.144t-2.048-6.144-5.12-4.096-14.336-1.024-13.312 3.072q-8.192 4.096-13.312 16.384t-5.12 20.48q0 6.144 1.024 15.36t2.048 14.336-3.072 14.336q2.048 1.024 5.12 5.12t5.12 6.144q2.048 1.024 3.072 1.024t3.072 0 2.048 1.024 1.024 3.072q0 1.024-2.048 2.048-1.024 1.024-2.048 1.024 4.096-1.024 16.384 1.024t15.36-1.024q9.216-6.144 12.288 1.024 0 1.024-1.024 6.144t0 7.168q3.072-15.36 16.384-5.12 2.048-1.024 9.216-3.072t9.216-2.048q2.048-1.024 4.096-3.072t3.072-3.072 3.072 0 5.12 4.096q5.12-8.192 7.168-13.312 6.144-23.552 10.24-25.6t6.144-1.024 3.072 5.12 0 8.192-1.024 7.168l-1.024 5.12v14.336q-8.192 2.048-10.24 7.168t0 10.24 9.216 10.24q0 1.024 4.096 2.048t9.216 4.096 7.168 4.096q12.288 11.264 8.192 20.48 4.096 0 6.144 5.12 0 0-2.048 2.048t-5.12 2.048-2.048 2.048q5.12 2.048 1.024 8.192 3.072 2.048 4.096 7.168t4.096 5.12q5.12-6.144 12.288-1.024 5.12 5.12 1.024 9.216 2.048 4.096 11.264 6.144t10.24 5.12q4.096-1.024 5.12 1.024t0 7.168 2.048 7.168q2.048 2.048 9.216 5.12t7.168 2.048l9.216 7.168q2.048 2.048 0 2.048 10.24-1.024 18.432 6.144 5.12 6.144-4.096 11.264 2.048 4.096-1.024 5.12t-9.216 4.096q2.048 0 7.168 0t5.12 1.024q9.216 5.12-3.072 9.216-10.24 2.048-24.576-7.168zM502.784-8.448q117.76 21.504 199.68 108.544-1.024 2.048-7.168 2.048t-7.168 2.048q-10.24 4.096-13.312 5.12 1.024 4.096-1.024 7.168t-5.12 5.12-7.168 5.12-6.144 4.096q-1.024 1.024-4.096 3.072t-4.096 3.072-4.096 2.048-5.12 2.048-5.12-1.024l-2.048-1.024q-2.048 0-3.072-1.024t-3.072-2.048-2.048-1.024 0-2.048q-12.288 10.24-20.48 13.312-3.072 0-6.144 3.072t-6.144 4.096-6.144 0-6.144-3.072q-3.072-3.072-4.096-9.216t-1.024-7.168q-4.096 3.072 0 10.24t1.024 10.24q-1.024 3.072-6.144 2.048t-6.144-2.048-7.168-5.12-5.12-3.072-4.096-3.072-5.12-5.12q-2.048-2.048-4.096-6.144t-2.048-6.144q-1.024 2.048-7.168 3.072t-5.12 3.072q1.024-5.12 2.048-19.456t3.072-22.528q4.096-17.408-7.168-26.624-15.36-14.336-16.384-23.552-2.048-12.288 7.168-14.336 0-4.096-5.12-12.288t-4.096-12.288q0-3.072 2.048-9.216z" />
<glyph unicode="&#xe833;" glyph-name="ccw" horiz-adv-x="878" d="M877.568 352q0-89.088-34.816-169.984t-93.184-140.288-140.288-94.208-169.984-34.816q-98.304 0-187.392 41.984t-150.528 116.736q-4.096 6.144-4.096 13.312t5.12 11.264l77.824 78.848q6.144 5.12 14.336 5.12 9.216-1.024 13.312-7.168 41.984-54.272 102.4-83.968t129.024-29.696q59.392 0 112.64 23.552t94.208 62.464 62.464 93.184 22.528 113.664-22.528 113.664-62.464 93.184-94.208 62.464-112.64 23.552q-56.32 0-107.52-20.48t-92.16-58.368l78.848-78.848q17.408-16.384 8.192-38.912-10.24-23.552-33.792-23.552h-256q-15.36 0-25.6 11.264t-11.264 25.6v256q0 24.576 22.528 33.792 22.528 10.24 39.936-8.192l73.728-73.728q61.44 58.368 140.288 90.112t162.816 31.744q89.088 0 169.984-34.816t140.288-94.208 93.184-140.288 34.816-169.984z" />
<glyph unicode="&#xe834;" glyph-name="cw" horiz-adv-x="878" d="M877.568 717.568v-256q0-14.336-10.24-25.6t-26.624-11.264h-256q-23.552 0-32.768 23.552-10.24 22.528 7.168 38.912l78.848 78.848q-83.968 78.848-198.656 78.848-59.392 0-113.664-23.552t-93.184-62.464-62.464-93.184-23.552-113.664 23.552-113.664 62.464-93.184 93.184-62.464 113.664-23.552q67.584 0 128 29.696t102.4 83.968q4.096 6.144 13.312 7.168 8.192 0 14.336-5.12l77.824-78.848q5.12-4.096 6.144-11.264t-5.12-13.312q-61.44-75.776-150.528-116.736t-186.368-41.984q-89.088 0-171.008 34.816t-139.264 94.208-94.208 140.288-34.816 169.984 34.816 169.984 94.208 140.288 139.264 94.208 171.008 34.816q83.968 0 161.792-31.744t140.288-90.112l73.728 73.728q17.408 18.432 39.936 8.192 22.528-9.216 22.528-33.792z" />
<glyph unicode="&#xe835;" glyph-name="off" horiz-adv-x="878" d="M877.568 352q0-89.088-34.816-169.984t-93.184-140.288-140.288-94.208-169.984-34.816-171.008 34.816-139.264 94.208-94.208 140.288-34.816 169.984q0 104.448 46.080 195.584t129.024 154.624q24.576 18.432 55.296 14.336t47.104-28.672q18.432-23.552 14.336-54.272t-28.672-48.128q-55.296-41.984-86.016-103.424t-30.72-130.048q0-59.392 23.552-113.664t62.464-93.184 93.184-62.464 113.664-23.552 112.64 23.552 94.208 62.464 62.464 93.184 22.528 113.664q0 69.632-30.72 130.048t-86.016 103.424q-23.552 18.432-28.672 48.128t14.336 54.272q17.408 24.576 48.128 28.672t54.272-14.336q82.944-62.464 129.024-154.624t46.080-195.584zM512 791.296v-366.592q0-29.696-21.504-51.2t-51.2-21.504-52.224 21.504-21.504 51.2v366.592q0 29.696 21.504 51.2t52.224 21.504 51.2-21.504 21.504-51.2z" />
<glyph unicode="&#xe836;" glyph-name="check1" horiz-adv-x="950" d="M804.864 332.544v-181.248q0-68.608-48.128-116.736t-116.736-48.128h-475.136q-68.608 0-116.736 48.128t-48.128 116.736v475.136q0 67.584 48.128 115.712t116.736 49.152h475.136q35.84 0 66.56-14.336 9.216-4.096 10.24-13.312 2.048-10.24-5.12-16.384l-27.648-28.672q-6.144-5.12-13.312-5.12-1.024 0-5.12 1.024-13.312 3.072-25.6 3.072h-475.136q-37.888 0-64.512-26.624t-27.648-64.512v-475.136q0-37.888 27.648-64.512t64.512-27.648h475.136q37.888 0 64.512 27.648t26.624 64.512v144.384q0 8.192 5.12 13.312l36.864 35.84q6.144 6.144 13.312 6.144 3.072 0 7.168-2.048 11.264-4.096 11.264-16.384zM936.96 612.096l-465.92-464.896q-13.312-14.336-31.744-14.336t-32.768 14.336l-245.76 245.76q-14.336 13.312-14.336 31.744t14.336 32.768l62.464 63.488q14.336 13.312 32.768 13.312t32.768-13.312l150.528-150.528 369.664 369.664q13.312 13.312 31.744 13.312t32.768-13.312l63.488-62.464q13.312-14.336 13.312-32.768t-13.312-32.768z" />
<glyph unicode="&#xe837;" glyph-name="credit-card" horiz-adv-x="1097" d="M1005.568 791.296q37.888 0 64.512-27.648t26.624-64.512v-694.272q0-37.888-26.624-64.512t-64.512-27.648h-914.432q-36.864 0-64.512 27.648t-26.624 64.512v694.272q0 37.888 26.624 64.512t64.512 27.648h914.432zM91.136 717.568q-7.168 0-12.288-5.12t-6.144-13.312v-128h951.296v128q0 8.192-5.12 13.312t-13.312 5.12h-914.432zM1005.568-13.568q7.168 0 13.312 5.12t5.12 13.312v347.136h-951.296v-347.136q0-7.168 6.144-13.312t12.288-5.12h914.432zM146.432 59.136v73.728h146.432v-73.728h-146.432zM365.568 59.136v73.728h219.136v-73.728h-219.136z" />
<glyph unicode="&#xe838;" glyph-name="user" horiz-adv-x="731" d="M731.136 64.256q0-61.44-35.84-106.496t-86.016-45.056h-487.424q-50.176 0-86.016 45.056t-35.84 106.496q0 49.152 5.12 92.16t17.408 87.040 33.792 74.752 53.248 51.2 77.824 19.456q74.752-73.728 178.176-73.728t179.2 73.728q43.008 0 76.8-19.456t53.248-51.2 33.792-74.752 18.432-87.040 4.096-92.16zM584.704 571.136q0-90.112-63.488-154.624t-155.648-64.512-154.624 64.512-64.512 154.624 64.512 155.648 154.624 64.512 155.648-64.512 63.488-155.648z" />
<glyph unicode="&#xe839;" glyph-name="users" horiz-adv-x="1097" d="M338.944 352q-92.16-3.072-151.552-72.704h-76.8q-46.080 0-78.848 22.528t-31.744 67.584q0 201.728 70.656 201.728 4.096 0 25.6-11.264t55.296-24.576 67.584-12.288q38.912 0 76.8 13.312-3.072-21.504-3.072-37.888 0-79.872 46.080-146.432zM951.296-12.544q0-67.584-41.984-107.52t-110.592-39.936h-499.712q-69.632 0-110.592 39.936t-41.984 107.52q0 30.72 2.048 59.392t8.192 62.464 14.336 62.464 24.576 55.296 35.84 46.080 49.152 30.72 63.488 11.264q6.144 0 24.576-12.288t41.984-26.624 60.416-27.648 77.824-12.288 76.8 12.288 61.44 27.648 41.984 26.624 24.576 12.288q34.816 0 63.488-11.264t48.128-30.72 35.84-46.080 24.576-55.296 15.36-62.464 8.192-62.464 2.048-59.392zM365.568 717.568q0-60.416-43.008-103.424t-103.424-43.008-103.424 43.008-43.008 103.424 43.008 103.424 103.424 43.008 103.424-43.008 43.008-103.424zM768 498.432q0-91.136-64.512-155.648t-154.624-63.488-155.648 63.488-64.512 155.648 64.512 154.624 155.648 64.512 154.624-64.512 64.512-154.624zM1096.704 369.408q0-44.032-31.744-67.584t-78.848-22.528h-76.8q-58.368 69.632-150.528 72.704 46.080 66.56 46.080 146.432 0 16.384-3.072 37.888 37.888-13.312 75.776-13.312 33.792 0 68.608 12.288t55.296 24.576 24.576 11.264q70.656 0 70.656-201.728zM1024 717.568q0-60.416-43.008-103.424t-103.424-43.008-103.424 43.008-43.008 103.424 43.008 103.424 103.424 43.008 103.424-43.008 43.008-103.424z" />
<glyph unicode="&#xe83a;" glyph-name="search" horiz-adv-x="950" d="M658.432 388.864q0 105.472-74.752 180.224t-181.248 75.776-181.248-75.776-74.752-180.224 74.752-181.248 181.248-74.752 181.248 74.752 74.752 181.248zM951.296-87.296q0-29.696-22.528-51.2t-51.2-21.504q-30.72 0-51.2 21.504l-195.584 195.584q-102.4-70.656-228.352-70.656-81.92 0-156.672 31.744t-128 86.016-86.016 128-31.744 156.672 31.744 155.648 86.016 129.024 128 86.016 156.672 31.744 156.672-31.744 128-86.016 86.016-129.024 31.744-155.648q0-125.952-70.656-228.352l195.584-195.584q21.504-21.504 21.504-52.224z" />
<glyph unicode="&#xe83b;" glyph-name="stripe" horiz-adv-x="684" d="M1.024 517.888q-11.264 154.624 129.024 258.048 64.512 48.128 148.48 71.68 79.872 23.552 179.2 11.264t185.344-60.416q-2.048-40.96 0-77.824 6.144-121.856-10.24-156.672-9.216 1.024-53.248 14.336-36.864 11.264-67.584 16.384-31.744 6.144-62.464 8.192-71.68 6.144-101.376-38.912 8.192-45.056 38.912-67.584 30.72-21.504 83.968-37.888 50.176-14.336 70.656-26.624 115.712-71.68 142.336-224.256v-87.040q0-82.944-46.080-145.408t-120.832-95.232q-107.52-45.056-250.88-38.912t-244.736 60.416q3.072 41.984 0 80.896-3.072 43.008-2.048 82.944 2.048 44.032 12.288 70.656 18.432-3.072 49.152-11.264 54.272-15.36 75.776-19.456 168.96-36.864 181.248 40.96 3.072 22.528-11.264 41.984t-34.816 29.696q-28.672 14.336-49.152 22.528-29.696 12.288-37.888 17.408-45.056 23.552-60.416 32.768-58.368 34.816-81.92 69.632-55.296 78.848-61.44 157.696z" />
<glyph unicode="&#xe900;" glyph-name="discord" d="M862.805 864c59.989 0 108.373-48.512 111.232-105.6v-918.4l-114.219 96.981-62.72 57.088-68.437 59.648 28.587-94.080h-598.955c-59.819 0-108.373 45.44-108.373 105.643v692.907c0 57.088 48.64 105.685 108.587 105.685l704.299 0.128zM601.771 621.525h-1.28l-8.619-8.533c88.448-25.6 131.243-65.579 131.243-65.579-57.003 28.501-108.373 42.752-159.744 48.512-37.12 5.76-74.24 2.731-105.6 0h-8.533c-20.053 0-62.72-8.533-119.893-31.36-19.925-8.661-31.36-14.336-31.36-14.336s42.752 42.752 136.96 65.579l-5.76 5.76s-71.339 2.731-148.352-54.187c0 0-77.013-134.144-77.013-299.52 0 0 42.667-74.24 159.701-77.056 0 0 17.067 22.741 34.347 42.752-65.707 19.968-91.307 59.904-91.307 59.904s5.717-2.816 14.293-8.533h2.56c1.28 0 1.877-0.64 2.56-1.28v-0.256c0.683-0.683 1.28-1.28 2.56-1.28 14.080-5.803 28.16-11.52 39.68-17.067 19.883-8.619 45.44-17.195 76.8-22.869 39.68-5.76 85.163-8.533 136.96 0 25.6 5.76 51.2 11.392 76.8 22.827 16.64 8.533 37.12 17.067 59.605 31.445 0 0-25.6-39.936-94.080-59.904 14.080-19.883 33.92-42.667 33.92-42.667 117.077 2.56 162.56 76.8 165.12 73.643 0 165.12-77.44 299.52-77.44 299.52-69.76 51.797-135.040 53.76-146.56 53.76l2.389 0.853zM608.939 433.237c29.995 0 54.187-25.6 54.187-56.96 0-31.573-24.32-57.173-54.187-57.173s-54.187 25.6-54.187 56.917c0.085 31.573 24.448 57.088 54.187 57.088zM415.104 433.237c29.867 0 54.016-25.6 54.016-56.96 0-31.573-24.32-57.173-54.187-57.173s-54.187 25.6-54.187 56.917c0 31.573 24.32 57.088 54.187 57.088z" />
<glyph unicode="&#xe901;" glyph-name="storefront" d="M214 43.333h598v256h-10q-60 0-96 40-40-40-96-40-54 0-98 40-40-40-94-40-60 0-100 40-36-40-94-40h-10v-256zM172 453.333q-6-28 12-50 14-20 40-20 42 0 50 50l26 206h-84zM362 441.333q0-22 15-40t37-18q24 0 40 17t16 39v200h-84l-24-192v-6zM554 639.333v-200q0-22 16-39t36-17q26 0 43 19t13 45l-24 192h-84zM806 641.333l-82-2 26-206q2-20 16-35t34-15q24 0 40 20 18 22 12 50zM934 473.333q16-70-26-122l-12-12v-296q0-34-26-60t-60-26h-596q-34 0-60 26t-26 60v296l-12 12q-42 52-26 122l44 188q6 28 30 46t52 18h592q28 0 51-18t31-46z" />
<glyph unicode="&#xe902;" glyph-name="shop" d="M313.498 499.2l40.499 268.8h-210.637l-88.013-230.4c-2.714-8.192-4.147-16.691-4.147-25.6 0-56.525 58.88-102.4 131.635-102.4 67.072 0 122.522 39.117 130.662 89.6zM512 409.6c72.704 0 131.635 45.875 131.635 102.4 0 2.099-0.154 4.198-0.256 6.195l-26.061 249.805h-210.637l-26.112-249.6c-0.102-2.099-0.205-4.198-0.205-6.4 0-56.525 58.931-102.4 131.635-102.4zM768 356.045v-202.445h-512v202.138c-22.426-8.090-47.104-12.698-73.165-12.698-9.984 0-19.661 1.178-29.235 2.509v-325.069c0-39.424 32.205-71.68 71.578-71.68h573.542c39.424 0 71.68 32.307 71.68 71.68v325.018c-9.626-1.28-19.251-2.509-29.235-2.509-25.907 0.051-50.688 4.762-73.165 13.056zM968.704 537.6l-88.115 230.4h-210.586l40.448-268.39c7.885-50.688 63.334-90.010 130.714-90.010 72.704 0 131.635 45.875 131.635 102.4 0 8.909-1.434 17.408-4.096 25.6z" />
<glyph unicode="&#xe903;" glyph-name="shop1, store" d="M1004.8 505.6l-96 127.936c-3.744 5.024-8.192 9.376-12.8 13.536v152.928c0 35.328-28.672 64-64 64h-640c-35.36 0-64-28.672-64-64v-152.96c-4.608-4.128-9.056-8.448-12.8-13.44l-95.968-127.968c-12.416-16.512-19.232-36.96-19.232-57.632v-32c0-52.928 43.072-96 96-96v0-416c0-35.328 28.672-64 64-64h704c35.328 0 64 28.672 64 64v416c52.928 0 96 43.072 96 96v32c0 20.672-6.816 41.12-19.2 57.6zM832 800v-128h-640v128h640zM326.176 384h-134.048l128 224h70.048l-64-224zM423.488 608h72.512v-224h-136.512l64 224zM528 608h72.512l64-224h-136.512v224zM633.76 608h70.048l128-224h-134.048l-64 224zM64 416v32c0 6.944 2.24 13.664 6.4 19.2l96 128c6.048 8.064 15.52 12.8 25.6 12.8h91.264l-128-224h-59.264c-17.664 0-32 14.304-32 32zM640-96h-240v320h240v-320zM864-96h-192v320c0 17.696-14.368 32-32 32h-240c-17.664 0-32-14.304-32-32v-320h-208v416h704v-416zM960 416c0-17.696-14.304-32-32-32h-59.328l-128 224h91.328c10.048 0 19.552-4.736 25.568-12.8l96-128c4.192-5.536 6.432-12.256 6.432-19.2v-32z" />
<glyph unicode="&#xe904;" glyph-name="clock-o" horiz-adv-x="878" d="M512 566.857v-256c0-10.286-8-18.286-18.286-18.286h-182.857c-10.286 0-18.286 8-18.286 18.286v36.571c0 10.286 8 18.286 18.286 18.286h128v201.143c0 10.286 8 18.286 18.286 18.286h36.571c10.286 0 18.286-8 18.286-18.286zM749.714 365.714c0 171.429-139.429 310.857-310.857 310.857s-310.857-139.429-310.857-310.857 139.429-310.857 310.857-310.857 310.857 139.429 310.857 310.857zM877.714 365.714c0-242.286-196.571-438.857-438.857-438.857s-438.857 196.571-438.857 438.857 196.571 438.857 438.857 438.857 438.857-196.571 438.857-438.857z" />
<glyph unicode="&#xe905;" glyph-name="checkmark, tick" d="M192 512l-192-192 384-384 640 640-192 192-448-448z" />
<glyph unicode="&#xe906;" glyph-name="checkmark2, tick2" d="M1014.592 667.744l-90.848 90.848c-12.576 12.576-32.832 12.576-45.408 0l-464.48-490.368-266.24 266.368c-12.704 12.704-33.312 12.704-46.016 0l-92.032-92.096c-12.704-12.672-12.704-33.28 0-46.016l378.656-387.456c7.328-7.36 17.28-9.888 26.848-8.64 9.888-1.472 20.192 1.024 27.776 8.64l571.744 613.28c12.544 12.544 12.544 32.896 0 45.44z" />
<glyph unicode="&#xe907;" glyph-name="checkmark1, tick1, approve, submit" d="M927.936 591.008l-68.288 68.288c-12.608 12.576-32.96 12.576-45.536 0l-409.44-409.44-194.752 196.16c-12.576 12.576-32.928 12.576-45.536 0l-68.288-68.288c-12.576-12.608-12.576-32.96 0-45.536l285.568-287.488c12.576-12.576 32.96-12.576 45.536 0l500.736 500.768c12.576 12.544 12.576 32.96 0 45.536z" />
<glyph unicode="&#xe908;" glyph-name="check" d="M823.168 627.498l-439.168-439.168-183.168 183.168c-16.683 16.683-43.691 16.683-60.331 0s-16.683-43.691 0-60.331l213.333-213.333c16.683-16.683 43.691-16.683 60.331 0l469.333 469.333c16.683 16.683 16.683 43.691 0 60.331s-43.691 16.683-60.331 0z" />
<glyph unicode="&#xe909;" glyph-name="line-chart" horiz-adv-x="1170" d="M1170.286 0v-73.143h-1170.286v877.714h73.143v-804.571h1097.143zM1097.143 713.143v-248.571c0-16-19.429-24.571-31.429-12.571l-69.143 69.143-361.714-361.714c-7.429-7.429-18.857-7.429-26.286 0l-133.143 133.143-237.714-237.714-109.714 109.714 334.286 334.286c7.429 7.429 18.857 7.429 26.286 0l133.143-133.143 265.143 265.143-69.143 69.143c-12 12-3.429 31.429 12.571 31.429h248.571c10.286 0 18.286-8 18.286-18.286z" />
<glyph unicode="&#xe90a;" glyph-name="bar-chart, bar-chart-o" horiz-adv-x="1170" d="M365.714 365.714v-292.571h-146.286v292.571h146.286zM585.143 658.285v-585.143h-146.286v585.143h146.286zM1170.286 0v-73.143h-1170.286v877.714h73.143v-804.571h1097.143zM804.571 512v-438.857h-146.286v438.857h146.286zM1024 731.428v-658.286h-146.286v658.286h146.286z" />
<glyph unicode="&#xe90b;" glyph-name="pie-chart" horiz-adv-x="987" d="M438.857 369.143l312-312c-79.429-80.571-190.286-130.286-312-130.286-242.286 0-438.857 196.571-438.857 438.857s196.571 438.857 438.857 438.857v-435.429zM545.714 365.714h441.714c0-121.714-49.714-232.571-130.286-312zM950.857 438.857h-438.857v438.857c242.286 0 438.857-196.571 438.857-438.857z" />
<glyph unicode="&#xe90c;" glyph-name="dashboard, tachometer" d="M219.429 219.428c0 40.571-32.571 73.143-73.143 73.143s-73.143-32.571-73.143-73.143 32.571-73.143 73.143-73.143 73.143 32.571 73.143 73.143zM329.143 475.428c0 40.571-32.571 73.143-73.143 73.143s-73.143-32.571-73.143-73.143 32.571-73.143 73.143-73.143 73.143 32.571 73.143 73.143zM573.714 200.571l57.714 218.286c4.571 19.429-6.857 39.429-26.286 44.571v0c-19.429 5.143-39.429-6.857-44.571-26.286l-57.714-218.286c-45.143-3.429-84.571-34.857-97.143-81.143-15.429-58.857 20-118.857 78.286-134.286 58.857-15.429 118.857 20 134.286 78.286 12 46.286-7.429 93.143-44.571 118.857zM950.857 219.428c0 40.571-32.571 73.143-73.143 73.143s-73.143-32.571-73.143-73.143 32.571-73.143 73.143-73.143 73.143 32.571 73.143 73.143zM585.143 585.143c0 40.571-32.571 73.143-73.143 73.143s-73.143-32.571-73.143-73.143 32.571-73.143 73.143-73.143 73.143 32.571 73.143 73.143zM841.143 475.428c0 40.571-32.571 73.143-73.143 73.143s-73.143-32.571-73.143-73.143 32.571-73.143 73.143-73.143 73.143 32.571 73.143 73.143zM1024 219.428c0-98.286-28-193.143-80.571-276-6.857-10.286-18.286-16.571-30.857-16.571h-801.143c-12.571 0-24 6.286-30.857 16.571-52.571 82.286-80.571 177.714-80.571 276 0 282.286 229.714 512 512 512s512-229.714 512-512z" />
<glyph unicode="&#xe90d;" glyph-name="facebook-square" horiz-adv-x="878" d="M713.143 804.571c90.857 0 164.571-73.714 164.571-164.571v-548.571c0-90.857-73.714-164.571-164.571-164.571h-107.429v340h113.714l17.143 132.571h-130.857v84.571c0 38.286 10.286 64 65.714 64l69.714 0.571v118.286c-12 1.714-53.714 5.143-101.714 5.143-101.143 0-170.857-61.714-170.857-174.857v-97.714h-114.286v-132.571h114.286v-340h-304c-90.857 0-164.571 73.714-164.571 164.571v548.571c0 90.857 73.714 164.571 164.571 164.571h548.571z" />
<glyph unicode="&#xe90e;" glyph-name="facebook, facebook-f" horiz-adv-x="602" d="M548 870.857v-150.857h-89.714c-70.286 0-83.429-33.714-83.429-82.286v-108h167.429l-22.286-169.143h-145.143v-433.714h-174.857v433.714h-145.714v169.143h145.714v124.571c0 144.571 88.571 223.429 217.714 223.429 61.714 0 114.857-4.571 130.286-6.857z" />
<glyph unicode="&#xe90f;" glyph-name="twitter" horiz-adv-x="951" d="M925.714 644.571c-25.143-36.571-56.571-69.143-92.571-95.429 0.571-8 0.571-16 0.571-24 0-244-185.714-525.143-525.143-525.143-104.571 0-201.714 30.286-283.429 82.857 14.857-1.714 29.143-2.286 44.571-2.286 86.286 0 165.714 29.143 229.143 78.857-81.143 1.714-149.143 54.857-172.571 128 11.429-1.714 22.857-2.857 34.857-2.857 16.571 0 33.143 2.286 48.571 6.286-84.571 17.143-148 91.429-148 181.143v2.286c24.571-13.714 53.143-22.286 83.429-23.429-49.714 33.143-82.286 89.714-82.286 153.714 0 34.286 9.143 65.714 25.143 93.143 90.857-112 227.429-185.143 380.571-193.143-2.857 13.714-4.571 28-4.571 42.286 0 101.714 82.286 184.571 184.571 184.571 53.143 0 101.143-22.286 134.857-58.286 41.714 8 81.714 23.429 117.143 44.571-13.714-42.857-42.857-78.857-81.143-101.714 37.143 4 73.143 14.286 106.286 28.571z" />
<glyph unicode="&#xe910;" glyph-name="gift" horiz-adv-x="878" d="M530.286 102.857v409.143h-182.857v-409.143c0-20 16.571-29.714 36.571-29.714h109.714c20 0 36.571 9.714 36.571 29.714zM269.714 585.143h111.429l-72 92c-6.286 7.429-20 17.714-39.429 17.714-30.286 0-54.857-24.571-54.857-54.857s24.571-54.857 54.857-54.857zM662.857 640c0 30.286-24.571 54.857-54.857 54.857-19.429 0-33.143-10.286-39.429-17.714l-71.429-92h110.857c30.286 0 54.857 24.571 54.857 54.857zM877.714 493.714v-182.857c0-10.286-8-18.286-18.286-18.286h-54.857v-237.714c0-30.286-24.571-54.857-54.857-54.857h-621.714c-30.286 0-54.857 24.571-54.857 54.857v237.714h-54.857c-10.286 0-18.286 8-18.286 18.286v182.857c0 10.286 8 18.286 18.286 18.286h251.429c-70.857 0-128 57.143-128 128s57.143 128 128 128c38.286 0 73.714-16 96-44l73.143-94.286 73.143 94.286c22.286 28 57.714 44 96 44 70.857 0 128-57.143 128-128s-57.143-128-128-128h251.429c10.286 0 18.286-8 18.286-18.286z" />
<glyph unicode="&#xe911;" glyph-name="gift1" d="M810.667 512h-100.352c9.344 19.499 15.019 41.003 15.019 64 0 82.347-66.987 149.333-149.333 149.333-41.771 0-79.531-17.365-106.667-45.141-27.136 27.776-64.896 45.141-106.667 45.141-82.347 0-149.333-66.987-149.333-149.333 0-22.997 5.675-44.501 15.019-64h-100.352c-23.595 0-42.667-19.115-42.667-42.667v-170.667c0-23.552 19.072-42.667 42.667-42.667v-213.333c0-70.571 57.429-128 128-128h426.667c70.571 0 128 57.429 128 128v213.333c23.595 0 42.667 19.115 42.667 42.667v170.667c0 23.552-19.072 42.667-42.667 42.667zM768 341.333h-213.333v85.333h213.333v-85.333zM426.667 554.666h85.333v-42.667h-85.333v42.667zM512 426.666v-85.333h-85.333v85.333h85.333zM576 640c35.285 0 64-28.715 64-64s-28.715-64-64-64c-7.552 0-14.677 1.664-21.333 4.139v38.528c0 22.229-17.237 39.979-38.955 41.899 8.619 25.173 32.256 43.435 60.288 43.435zM298.667 576c0 35.285 28.715 64 64 64 28.032 0 51.669-18.261 60.288-43.435-21.717-1.92-38.955-19.669-38.955-41.899v-38.528c-6.656-2.475-13.781-4.139-21.333-4.139-35.285 0-64 28.715-64 64zM384 426.666v-85.333h-213.333v85.333h213.333zM256 0c-23.509 0-42.667 19.157-42.667 42.667v256h170.667v-298.667h-128zM426.667 0v298.667h85.333v-298.667h-85.333zM682.667 0h-128v298.667h170.667v-256c0-23.509-19.157-42.667-42.667-42.667z" />
<glyph unicode="&#xf08e;" glyph-name="link-ext" d="M804.864 333.568v-182.272q0-68.608-48.128-116.736t-116.736-48.128h-475.136q-68.608 0-116.736 48.128t-48.128 116.736v475.136q0 67.584 48.128 115.712t116.736 49.152h402.432q7.168 0 12.288-5.12t5.12-13.312v-36.864q0-8.192-5.12-13.312t-12.288-5.12h-402.432q-37.888 0-64.512-26.624t-27.648-64.512v-475.136q0-37.888 27.648-64.512t64.512-27.648h475.136q37.888 0 64.512 27.648t26.624 64.512v182.272q0 8.192 5.12 13.312t13.312 5.12h36.864q8.192 0 13.312-5.12t5.12-13.312zM1024 827.136v-291.84q0-15.36-11.264-25.6t-25.6-11.264-25.6 11.264l-100.352 100.352-372.736-372.736q-5.12-6.144-13.312-6.144t-12.288 6.144l-65.536 65.536q-6.144 5.12-6.144 12.288t6.144 13.312l372.736 372.736-100.352 100.352q-11.264 11.264-11.264 25.6t11.264 25.6 25.6 11.264h291.84q15.36 0 25.6-11.264t11.264-25.6z" />
<glyph unicode="&#xf096;" glyph-name="check-empty" horiz-adv-x="804" d="M640 717.568h-475.136q-37.888 0-64.512-26.624t-27.648-64.512v-475.136q0-37.888 27.648-64.512t64.512-27.648h475.136q37.888 0 64.512 27.648t26.624 64.512v475.136q0 37.888-26.624 64.512t-64.512 26.624zM804.864 626.432v-475.136q0-68.608-48.128-116.736t-116.736-48.128h-475.136q-68.608 0-116.736 48.128t-48.128 116.736v475.136q0 67.584 48.128 115.712t116.736 49.152h475.136q67.584 0 116.736-49.152t48.128-115.712z" />
<glyph unicode="&#xf0a0;" glyph-name="hdd" horiz-adv-x="878" d="M593.92 168.704q0-18.432-13.312-31.744t-31.744-13.312-32.768 13.312-13.312 31.744 13.312 32.768 32.768 13.312 31.744-13.312 13.312-32.768zM740.352 168.704q0-18.432-13.312-31.744t-31.744-13.312-32.768 13.312-13.312 31.744 13.312 32.768 32.768 13.312 31.744-13.312 13.312-32.768zM804.864 77.568v183.296q0 7.168-6.144 12.288t-12.288 6.144h-695.296q-7.168 0-12.288-6.144t-6.144-12.288v-183.296q0-7.168 6.144-12.288t12.288-6.144h695.296q7.168 0 12.288 6.144t6.144 12.288zM101.376 352h674.816l-90.112 275.456q-2.048 7.168-9.216 12.288t-14.336 5.12h-447.488q-7.168 0-14.336-5.12t-9.216-12.288zM877.568 260.864v-183.296q0-37.888-26.624-64.512t-64.512-26.624h-695.296q-36.864 0-64.512 26.624t-26.624 64.512v183.296q0 14.336 9.216 43.008l112.64 346.112q9.216 29.696 35.84 49.152t57.344 18.432h447.488q31.744 0 57.344-18.432t35.84-49.152l112.64-346.112q9.216-28.672 9.216-43.008z" />
<glyph unicode="&#xf0a3;" glyph-name="certificate" horiz-adv-x="878" d="M786.432 352l78.848-76.8q17.408-16.384 11.264-39.936-7.168-23.552-29.696-29.696l-107.52-27.648 30.72-105.472q6.144-23.552-11.264-39.936-16.384-18.432-39.936-11.264l-106.496 30.72-27.648-107.52q-5.12-23.552-28.672-30.72-7.168-1.024-11.264-1.024-17.408 0-28.672 13.312l-76.8 78.848-77.824-78.848q-15.36-17.408-39.936-12.288-23.552 7.168-28.672 30.72l-27.648 107.52-106.496-30.72q-23.552-7.168-39.936 11.264-17.408 16.384-10.24 39.936l29.696 105.472-107.52 27.648q-22.528 6.144-29.696 29.696-6.144 23.552 11.264 39.936l78.848 76.8-78.848 76.8q-17.408 16.384-11.264 39.936 7.168 23.552 29.696 29.696l107.52 27.648-29.696 105.472q-7.168 23.552 10.24 40.96 16.384 17.408 39.936 10.24l106.496-29.696 27.648 106.496q5.12 23.552 28.672 29.696 23.552 7.168 39.936-11.264l77.824-78.848 76.8 78.848q16.384 17.408 39.936 11.264t28.672-29.696l27.648-106.496 106.496 29.696q23.552 7.168 39.936-10.24 17.408-17.408 11.264-40.96l-30.72-105.472 107.52-27.648q22.528-6.144 29.696-29.696 6.144-23.552-11.264-39.936z" />
<glyph unicode="&#xf0ae;" glyph-name="tasks" d="M584.704 59.136h366.592v73.728h-366.592v-73.728zM365.568 352h585.728v72.704h-585.728v-72.704zM731.136 644.864h220.16v72.704h-220.16v-72.704zM1024 168.704v-145.408q0-15.36-11.264-25.6t-25.6-11.264h-950.272q-15.36 0-25.6 11.264t-11.264 25.6v145.408q0 15.36 11.264 26.624t25.6 10.24h950.272q15.36 0 25.6-10.24t11.264-26.624zM1024 461.568v-146.432q0-14.336-11.264-25.6t-25.6-10.24h-950.272q-15.36 0-25.6 10.24t-11.264 25.6v146.432q0 15.36 11.264 25.6t25.6 11.264h950.272q15.36 0 25.6-11.264t11.264-25.6zM1024 754.432v-146.432q0-14.336-11.264-25.6t-25.6-11.264h-950.272q-15.36 0-25.6 11.264t-11.264 25.6v146.432q0 14.336 11.264 25.6t25.6 11.264h950.272q15.36 0 25.6-11.264t11.264-25.6z" />
<glyph unicode="&#xf0b2;" glyph-name="resize-full-alt" horiz-adv-x="878" d="M733.184 554.752l-202.752-202.752 202.752-202.752 81.92 81.92q17.408 18.432 39.936 8.192 22.528-9.216 22.528-33.792v-256q0-14.336-10.24-25.6t-26.624-11.264h-256q-23.552 0-32.768 23.552-10.24 21.504 7.168 38.912l82.944 82.944-202.752 202.752-202.752-202.752 81.92-82.944q17.408-17.408 8.192-38.912-10.24-23.552-33.792-23.552h-256q-15.36 0-25.6 11.264t-11.264 25.6v256q0 24.576 22.528 33.792 22.528 10.24 39.936-8.192l81.92-81.92 202.752 202.752-202.752 202.752-81.92-81.92q-11.264-11.264-25.6-11.264-7.168 0-14.336 3.072-22.528 9.216-22.528 33.792v256q0 14.336 11.264 25.6t25.6 11.264h256q23.552 0 33.792-23.552 9.216-21.504-8.192-38.912l-81.92-82.944 202.752-202.752 202.752 202.752-82.944 82.944q-17.408 17.408-7.168 38.912 9.216 23.552 32.768 23.552h256q15.36 0 26.624-11.264t10.24-25.6v-256q0-24.576-22.528-33.792-7.168-3.072-14.336-3.072-14.336 0-25.6 11.264z" />
<glyph unicode="&#xf0c9;" glyph-name="menu" horiz-adv-x="878" d="M877.568 96v-72.704q0-15.36-10.24-25.6t-26.624-11.264h-803.84q-15.36 0-25.6 11.264t-11.264 25.6v72.704q0 15.36 11.264 25.6t25.6 11.264h803.84q15.36 0 26.624-11.264t10.24-25.6zM877.568 388.864v-73.728q0-14.336-10.24-25.6t-26.624-10.24h-803.84q-15.36 0-25.6 10.24t-11.264 25.6v73.728q0 14.336 11.264 25.6t25.6 10.24h803.84q15.36 0 26.624-10.24t10.24-25.6zM877.568 680.704v-72.704q0-14.336-10.24-25.6t-26.624-11.264h-803.84q-15.36 0-25.6 11.264t-11.264 25.6v72.704q0 15.36 11.264 26.624t25.6 10.24h803.84q15.36 0 26.624-10.24t10.24-26.624z" />
<glyph unicode="&#xf0d6;" glyph-name="money" horiz-adv-x="1097" d="M439.296 205.568h219.136v55.296h-73.728v256h-64.512l-84.992-78.848 44.032-45.056q24.576 20.48 31.744 31.744h1.024v-163.84h-72.704v-55.296zM731.136 352q0-39.936-11.264-80.896t-34.816-76.8-57.344-57.344-78.848-22.528-78.848 22.528-58.368 57.344-33.792 76.8-12.288 80.896 12.288 80.896 33.792 76.8 58.368 57.344 78.848 22.528 78.848-22.528 57.344-57.344 34.816-76.8 11.264-80.896zM1024 205.568v292.864q-60.416 0-103.424 43.008t-43.008 103.424h-658.432q0-60.416-43.008-103.424t-103.424-43.008v-292.864q61.44 0 103.424-43.008t43.008-103.424h658.432q0 60.416 43.008 103.424t103.424 43.008zM1096.704 680.704v-657.408q0-15.36-10.24-25.6t-25.6-11.264h-1024q-15.36 0-25.6 11.264t-11.264 25.6v657.408q0 15.36 11.264 26.624t25.6 10.24h1024q14.336 0 25.6-10.24t10.24-26.624z" />
<glyph unicode="&#xf0e0;" glyph-name="mail-alt" d="M1024 458.496v-453.632q0-37.888-26.624-64.512t-64.512-27.648h-841.728q-36.864 0-64.512 27.648t-26.624 64.512v453.632q25.6-27.648 57.344-50.176 206.848-140.288 284.672-196.608 32.768-24.576 52.224-37.888t54.272-27.648 62.464-13.312h2.048q28.672 0 62.464 13.312t54.272 27.648 52.224 37.888q97.28 69.632 284.672 196.608 32.768 22.528 57.344 50.176zM1024 626.432q0-45.056-27.648-86.016t-69.632-70.656q-215.040-149.504-268.288-185.344-5.12-4.096-23.552-17.408t-30.72-22.528-29.696-18.432-32.768-15.36-28.672-5.12h-2.048q-12.288 0-27.648 5.12t-32.768 15.36-30.72 18.432-30.72 22.528-23.552 17.408q-52.224 35.84-150.528 103.424t-116.736 81.92q-35.84 23.552-66.56 65.536t-31.744 78.848q0 44.032 23.552 73.728t67.584 29.696h841.728q36.864 0 64.512-26.624t26.624-64.512z" />
<glyph unicode="&#xf0e4;" glyph-name="gauge" d="M219.136 205.568q0 30.72-21.504 52.224t-51.2 21.504-52.224-21.504-21.504-52.224 21.504-51.2 52.224-21.504 51.2 21.504 21.504 51.2zM328.704 461.568q0 30.72-20.48 52.224t-52.224 21.504-51.2-21.504-21.504-52.224 21.504-51.2 51.2-21.504 52.224 21.504 20.48 51.2zM573.44 187.136l58.368 218.112q3.072 14.336-5.12 27.648t-21.504 16.384-27.648-3.072-17.408-22.528l-57.344-218.112q-33.792-3.072-61.44-25.6t-35.84-56.32q-11.264-44.032 11.264-82.944t67.584-51.2 82.944 11.264 51.2 67.584q9.216 33.792-4.096 66.56t-40.96 52.224zM951.296 205.568q0 30.72-21.504 52.224t-52.224 21.504-51.2-21.504-21.504-52.224 21.504-51.2 51.2-21.504 52.224 21.504 21.504 51.2zM584.704 571.136q0 30.72-20.48 52.224t-52.224 21.504-51.2-21.504-21.504-52.224 21.504-51.2 51.2-21.504 52.224 21.504 20.48 51.2zM840.704 461.568q0 30.72-20.48 52.224t-52.224 21.504-51.2-21.504-21.504-52.224 21.504-51.2 51.2-21.504 52.224 21.504 20.48 51.2zM1024 205.568q0-148.48-80.896-275.456-10.24-17.408-30.72-17.408h-800.768q-20.48 0-30.72 17.408-80.896 125.952-80.896 275.456 0 104.448 40.96 198.656t108.544 163.84 163.84 109.568 198.656 39.936 198.656-39.936 163.84-109.568 108.544-163.84 40.96-198.656z" />
<glyph unicode="&#xf0e5;" glyph-name="comment-empty" d="M512 644.864q-116.736 0-218.112-39.936t-160.768-107.52-60.416-145.408q0-63.488 40.96-121.856t115.712-100.352l49.152-28.672-15.36-54.272q-13.312-52.224-39.936-99.328 87.040 36.864 157.696 98.304l24.576 21.504 32.768-3.072q38.912-5.12 73.728-5.12 116.736 0 218.112 39.936t160.768 107.52 60.416 145.408-60.416 145.408-160.768 107.52-218.112 39.936zM1024 352q0-99.328-68.608-183.296t-186.368-133.12-257.024-49.152q-39.936 0-82.944 4.096-112.64-99.328-263.168-138.24-27.648-8.192-64.512-12.288h-3.072q-8.192 0-15.36 6.144t-9.216 15.36v1.024q-2.048 2.048 0 6.144t1.024 6.144 2.048 5.12l4.096 5.12t4.096 5.12 4.096 5.12q4.096 5.12 17.408 19.456t20.48 22.528 17.408 22.528 18.432 28.672 15.36 33.792 15.36 43.008q-90.112 51.2-141.312 125.952t-52.224 160.768q0 99.328 68.608 183.296t186.368 133.12 257.024 49.152 257.024-49.152 186.368-133.12 68.608-183.296z" />
<glyph unicode="&#xf0e6;" glyph-name="chat-empty" d="M402.432 644.864q-87.040 0-163.84-29.696t-120.832-80.896-45.056-109.568q0-46.080 30.72-90.112t84.992-74.752l55.296-32.768-19.456-47.104q19.456 11.264 34.816 21.504l25.6 18.432 30.72-6.144q44.032-8.192 87.040-8.192 87.040 0 163.84 29.696t120.832 80.896 44.032 108.544-44.032 109.568-120.832 80.896-163.84 29.696zM402.432 717.568q108.544 0 201.728-38.912t146.432-106.496 54.272-147.456-54.272-146.432-146.432-106.496-201.728-38.912q-49.152 0-100.352 9.216-71.68-50.176-158.72-73.728-21.504-5.12-49.152-9.216h-2.048q-6.144 0-12.288 5.12t-6.144 12.288q-1.024 1.024-1.024 3.072t1.024 4.096 1.024 3.072l1.024 3.072t2.048 3.072 2.048 3.072 3.072 3.072 2.048 2.048q3.072 3.072 13.312 14.336t15.36 16.384 12.288 17.408 14.336 21.504 11.264 25.6q-70.656 40.96-110.592 100.352t-40.96 128q0 79.872 54.272 147.456t146.432 106.496 201.728 38.912zM872.448 49.92q5.12-14.336 11.264-25.6t14.336-21.504 13.312-16.384 14.336-17.408 13.312-14.336q0 0 2.048-2.048t3.072-3.072 2.048-3.072 2.048-3.072l1.024-3.072t1.024-3.072 1.024-4.096-1.024-3.072q-2.048-8.192-7.168-13.312t-12.288-4.096q-28.672 4.096-49.152 9.216-88.064 23.552-159.744 73.728-51.2-9.216-100.352-9.216-154.624 0-269.312 75.776 32.768-3.072 50.176-3.072 92.16 0 176.128 25.6t151.552 73.728q70.656 53.248 109.568 121.856t37.888 144.384q0 44.032-13.312 87.040 73.728-39.936 116.736-101.376t43.008-131.072q0-68.608-40.96-129.024t-110.592-100.352z" />
<glyph unicode="&#xf0f6;" glyph-name="doc-text" horiz-adv-x="878" d="M838.656 646.912q16.384-16.384 27.648-43.008t11.264-51.2v-657.408q0-23.552-15.36-38.912t-38.912-16.384h-768q-23.552 0-38.912 16.384t-16.384 38.912v913.408q0 23.552 16.384 38.912t38.912 16.384h512q22.528 0 50.176-11.264t43.008-27.648zM584.704 786.176v-215.040h215.040q-5.12 17.408-12.288 23.552l-179.2 179.2q-6.144 7.168-23.552 12.288zM804.864-87.296v585.728h-237.568q-23.552 0-38.912 16.384t-16.384 37.888v238.592h-439.296v-878.592h732.16zM219.136 407.296q0 7.168 5.12 12.288t13.312 5.12h402.432q8.192 0 13.312-5.12t5.12-12.288v-36.864q0-8.192-5.12-13.312t-13.312-5.12h-402.432q-8.192 0-13.312 5.12t-5.12 13.312v36.864zM640 279.296q8.192 0 13.312-5.12t5.12-13.312v-36.864q0-8.192-5.12-13.312t-13.312-5.12h-402.432q-8.192 0-13.312 5.12t-5.12 13.312v36.864q0 8.192 5.12 13.312t13.312 5.12h402.432zM640 132.864q8.192 0 13.312-5.12t5.12-13.312v-36.864q0-8.192-5.12-13.312t-13.312-5.12h-402.432q-8.192 0-13.312 5.12t-5.12 13.312v36.864q0 8.192 5.12 13.312t13.312 5.12h402.432z" />
<glyph unicode="&#xf10c;" glyph-name="circle-empty" horiz-adv-x="878" d="M439.296 663.296q-84.992 0-156.672-41.984t-112.64-113.664-41.984-155.648 41.984-155.648 112.64-113.664 156.672-41.984 155.648 41.984 112.64 113.664 41.984 155.648-41.984 155.648-112.64 113.664-155.648 41.984zM877.568 352q0-119.808-58.368-220.16t-159.744-159.744-220.16-59.392-221.184 59.392-158.72 159.744-59.392 220.16 59.392 220.16 158.72 159.744 221.184 59.392 220.16-59.392 159.744-159.744 58.368-220.16z" />
<glyph unicode="&#xf111;" glyph-name="circle" horiz-adv-x="878" d="M877.568 352q0-119.808-58.368-220.16t-159.744-159.744-220.16-59.392-221.184 59.392-158.72 159.744-59.392 220.16 59.392 220.16 158.72 159.744 221.184 59.392 220.16-59.392 159.744-159.744 58.368-220.16z" />
<glyph unicode="&#xf121;" glyph-name="code" horiz-adv-x="1097" d="M352.256 64.256l-28.672-28.672q-5.12-5.12-12.288-5.12t-13.312 5.12l-266.24 267.264q-6.144 5.12-6.144 12.288t6.144 13.312l266.24 266.24q5.12 6.144 13.312 6.144t12.288-6.144l28.672-28.672q6.144-5.12 6.144-13.312t-6.144-12.288l-224.256-225.28 224.256-224.256q6.144-6.144 6.144-13.312t-6.144-13.312zM690.176 674.56l-212.992-738.304q-2.048-7.168-9.216-11.264t-13.312-1.024l-34.816 9.216q-8.192 3.072-11.264 9.216t-2.048 14.336l214.016 737.28q2.048 8.192 8.192 11.264t13.312 2.048l35.84-10.24q7.168-2.048 11.264-9.216t1.024-13.312zM1065.984 302.848l-266.24-267.264q-6.144-5.12-13.312-5.12t-13.312 5.12l-28.672 28.672q-5.12 6.144-5.12 13.312t5.12 13.312l224.256 224.256-224.256 225.28q-5.12 5.12-5.12 12.288t5.12 13.312l28.672 28.672q6.144 6.144 13.312 6.144t13.312-6.144l266.24-266.24q5.12-5.12 5.12-13.312t-5.12-12.288z" />
<glyph unicode="&#xf127;" glyph-name="unlink" horiz-adv-x="950" d="M250.88 137.984l-146.432-146.432q-6.144-5.12-13.312-5.12t-12.288 5.12q-6.144 6.144-6.144 13.312t6.144 13.312l145.408 145.408q6.144 5.12 13.312 5.12t13.312-5.12q5.12-5.12 5.12-12.288t-5.12-13.312zM347.136 114.432v-183.296q0-8.192-5.12-13.312t-13.312-5.12-12.288 5.12-5.12 13.312v183.296q0 8.192 5.12 13.312t12.288 5.12 13.312-5.12 5.12-13.312zM219.136 242.432q0-8.192-5.12-13.312t-13.312-5.12h-182.272q-8.192 0-13.312 5.12t-5.12 13.312 5.12 13.312 13.312 5.12h182.272q8.192 0 13.312-5.12t5.12-13.312zM942.080 168.704q0-67.584-49.152-115.712l-83.968-82.944q-47.104-48.128-115.712-48.128-69.632 0-116.736 49.152l-190.464 191.488q-12.288 12.288-24.576 31.744l137.216 10.24 155.648-156.672q15.36-15.36 38.912-15.36t38.912 15.36l83.968 82.944q16.384 16.384 16.384 37.888 0 23.552-16.384 38.912l-156.672 157.696 10.24 136.192q20.48-11.264 31.744-23.552l192.512-192.512q48.128-49.152 48.128-116.736zM588.8 582.4l-136.192-10.24-155.648 156.672q-16.384 16.384-38.912 16.384t-38.912-15.36l-83.968-83.968q-16.384-15.36-16.384-37.888t16.384-38.912l156.672-156.672-10.24-137.216q-20.48 12.288-32.768 24.576l-191.488 191.488q-48.128 49.152-48.128 116.736 0 68.608 48.128 115.712l83.968 83.968q48.128 47.104 116.736 47.104t116.736-48.128l190.464-191.488q12.288-12.288 23.552-32.768zM951.296 535.296q0-8.192-5.12-13.312t-13.312-5.12h-183.296q-8.192 0-13.312 5.12t-5.12 13.312 5.12 12.288 13.312 5.12h183.296q8.192 0 13.312-5.12t5.12-12.288zM640 845.568v-182.272q0-8.192-5.12-13.312t-13.312-5.12-13.312 5.12-5.12 13.312v182.272q0 8.192 5.12 13.312t13.312 5.12 13.312-5.12 5.12-13.312zM872.448 759.552l-146.432-146.432q-6.144-5.12-13.312-5.12t-12.288 5.12q-5.12 6.144-5.12 13.312t5.12 13.312l146.432 146.432q5.12 5.12 12.288 5.12t13.312-5.12q5.12-6.144 5.12-13.312t-5.12-13.312z" />
<glyph unicode="&#xf128;" glyph-name="help" horiz-adv-x="585" d="M402.432 146.176v-137.216q0-9.216-7.168-15.36t-15.36-7.168h-137.216q-9.216 0-16.384 7.168t-7.168 15.36v137.216q0 9.216 7.168 16.384t16.384 6.144h137.216q9.216 0 15.36-6.144t7.168-16.384zM582.656 489.216q0-30.72-8.192-57.344t-20.48-44.032-31.744-33.792-32.768-25.6-34.816-19.456q-23.552-13.312-38.912-37.888t-15.36-37.888q0-10.24-7.168-18.432t-16.384-9.216h-137.216q-8.192 0-14.336 11.264t-6.144 20.48v26.624q0 47.104 37.888 89.088t80.896 61.44q33.792 16.384 48.128 32.768t14.336 43.008q0 24.576-26.624 41.984t-61.44 18.432q-36.864 0-61.44-16.384-20.48-14.336-61.44-65.536-7.168-9.216-17.408-9.216-7.168 0-14.336 4.096l-93.184 71.68q-8.192 6.144-9.216 14.336t3.072 16.384q91.136 151.552 265.216 151.552 46.080 0 92.16-17.408t82.944-47.104 60.416-73.728 23.552-90.112z" />
<glyph unicode="&#xf129;" glyph-name="info" horiz-adv-x="366" d="M365.568 96v-72.704q0-15.36-10.24-25.6t-26.624-11.264h-291.84q-15.36 0-25.6 11.264t-11.264 25.6v72.704q0 15.36 11.264 25.6t25.6 11.264h35.84v219.136h-35.84q-15.36 0-25.6 11.264t-11.264 25.6v72.704q0 15.36 11.264 25.6t25.6 11.264h219.136q15.36 0 25.6-11.264t11.264-25.6v-328.704h35.84q15.36 0 26.624-11.264t10.24-25.6zM292.864 754.432v-109.568q0-15.36-11.264-25.6t-25.6-11.264h-146.432q-14.336 0-25.6 11.264t-11.264 25.6v109.568q0 14.336 11.264 25.6t25.6 11.264h146.432q15.36 0 25.6-11.264t11.264-25.6z" />
<glyph unicode="&#xf132;" glyph-name="shield" horiz-adv-x="731" d="M621.568 315.136v365.568h-256v-649.216q68.608 35.84 121.856 77.824 134.144 105.472 134.144 205.824zM731.136 754.432v-439.296q0-49.152-18.432-97.28t-48.128-86.016-67.584-72.704-71.68-58.368-69.632-44.032-51.2-28.672-23.552-11.264q-7.168-4.096-15.36-4.096t-14.336 4.096q-9.216 4.096-24.576 11.264t-51.2 28.672-68.608 44.032-72.704 58.368-67.584 72.704-47.104 86.016-19.456 97.28v439.296q0 14.336 11.264 25.6t25.6 11.264h658.432q14.336 0 25.6-11.264t10.24-25.6z" />
<glyph unicode="&#xf133;" glyph-name="calendar-empty" horiz-adv-x="950" d="M72.704-87.296h804.864v585.728h-804.864v-585.728zM292.864 608v164.864q0 8.192-5.12 13.312t-13.312 5.12h-36.864q-8.192 0-13.312-5.12t-5.12-13.312v-164.864q0-8.192 5.12-13.312t13.312-5.12h36.864q8.192 0 13.312 5.12t5.12 13.312zM731.136 608v164.864q0 8.192-5.12 13.312t-13.312 5.12h-35.84q-8.192 0-13.312-5.12t-5.12-13.312v-164.864q0-8.192 5.12-13.312t13.312-5.12h35.84q8.192 0 13.312 5.12t5.12 13.312zM951.296 644.864v-732.16q0-29.696-22.528-51.2t-51.2-21.504h-804.864q-29.696 0-51.2 21.504t-21.504 51.2v732.16q0 29.696 21.504 51.2t51.2 21.504h73.728v55.296q0 37.888 26.624 64.512t64.512 26.624h36.864q37.888 0 64.512-26.624t26.624-64.512v-55.296h219.136v55.296q0 37.888 27.648 64.512t64.512 26.624h35.84q37.888 0 65.536-26.624t26.624-64.512v-55.296h72.704q29.696 0 51.2-21.504t22.528-51.2z" />
<glyph unicode="&#xf135;" glyph-name="rocket" horiz-adv-x="950" d="M823.296 608q0 22.528-16.384 38.912t-38.912 16.384-38.912-16.384-16.384-38.912 16.384-38.912 38.912-16.384 38.912 16.384 16.384 38.912zM951.296 772.864q0-142.336-44.032-245.76t-144.384-206.848q-46.080-45.056-111.616-100.352l-11.264-216.064q-1.024-9.216-9.216-15.36l-219.136-128q-4.096-2.048-9.216-2.048-7.168 0-13.312 5.12l-36.864 36.864q-7.168 7.168-4.096 17.408l48.128 158.72-159.744 159.744-157.696-48.128q-2.048-1.024-6.144-1.024-7.168 0-12.288 5.12l-36.864 36.864q-10.24 11.264-3.072 22.528l128 219.136q6.144 8.192 15.36 9.216l216.064 11.264q55.296 65.536 100.352 111.616 107.52 106.496 204.8 147.456t246.784 40.96q7.168 0 13.312-6.144t6.144-12.288z" />
<glyph unicode="&#xf13e;" glyph-name="lock-open-alt" horiz-adv-x="657" d="M603.136 424.704q23.552 0 38.912-15.36t16.384-38.912v-329.728q0-22.528-16.384-37.888t-38.912-16.384h-547.84q-23.552 0-38.912 16.384t-16.384 37.888v329.728q0 22.528 16.384 38.912t38.912 15.36h17.408v183.296q0 105.472 75.776 181.248t180.224 74.752 181.248-74.752 74.752-181.248q0-14.336-10.24-25.6t-25.6-11.264h-36.864q-14.336 0-25.6 11.264t-11.264 25.6q0 60.416-43.008 103.424t-103.424 43.008-103.424-43.008-41.984-103.424v-183.296h419.84z" />
<glyph unicode="&#xf153;" glyph-name="euro" horiz-adv-x="585" d="M558.080 117.504l19.456-91.136q2.048-7.168-1.024-13.312t-10.24-8.192h-3.072q-2.048-1.024-6.144-2.048t-9.216-3.072-12.288-3.072-14.336-3.072-16.384-2.048-19.456-3.072-21.504-2.048-21.504 0q-134.144 0-233.472 74.752t-136.192 200.704h-54.272q-7.168 0-13.312 5.12t-5.12 13.312v64.512q0 7.168 5.12 12.288t13.312 6.144h37.888q-1.024 31.744 0 59.392h-37.888q-8.192 0-13.312 5.12t-5.12 13.312v65.536q0 8.192 5.12 13.312t13.312 5.12h56.32q37.888 119.808 138.24 192.512t229.376 73.728q58.368 0 110.592-13.312 6.144-2.048 11.264-9.216 4.096-6.144 2.048-13.312l-24.576-91.136q-2.048-7.168-8.192-11.264t-13.312-1.024l-2.048 1.024q-3.072 0-7.168 1.024l-10.24 2.048t-12.288 2.048-15.36 2.048-16.384 1.024-16.384 1.024q-72.704 0-129.024-36.864t-86.016-100.352h267.264q9.216 0 14.336-7.168 6.144-7.168 4.096-15.36l-13.312-64.512q-3.072-15.36-18.432-15.36h-279.552q-1.024-20.48 0-59.392h263.168q8.192 0 13.312-7.168t4.096-15.36l-14.336-64.512q-1.024-6.144-6.144-10.24t-11.264-4.096h-221.184q27.648-66.56 86.016-106.496t130.048-38.912q10.24 0 20.48 1.024t19.456 2.048 16.384 2.048 14.336 3.072 10.24 3.072l7.168 1.024 3.072 2.048q7.168 2.048 14.336-2.048 7.168-3.072 9.216-11.264z" />
<glyph unicode="&#xf154;" glyph-name="pound" horiz-adv-x="585" d="M582.656 214.784v-209.92q0-8.192-5.12-13.312t-13.312-5.12h-545.792q-8.192 0-13.312 5.12t-5.12 13.312v84.992q0 8.192 5.12 13.312t13.312 5.12h55.296v219.136h-54.272q-8.192 0-13.312 5.12t-5.12 13.312v74.752q0 8.192 5.12 13.312t13.312 5.12h54.272v126.976q0 98.304 70.656 161.792t179.2 63.488q106.496 0 191.488-71.68 5.12-5.12 6.144-12.288t-4.096-12.288l-58.368-72.704q-5.12-6.144-13.312-7.168-7.168-1.024-13.312 4.096-2.048 3.072-14.336 11.264t-39.936 18.432-52.224 10.24q-49.152 0-78.848-27.648t-29.696-69.632v-122.88h174.080q8.192 0 13.312-5.12t5.12-13.312v-74.752q0-7.168-5.12-13.312t-13.312-5.12h-174.080v-216.064h236.544v103.424q0 7.168 5.12 12.288t13.312 5.12h92.16q8.192 0 13.312-5.12t5.12-12.288z" />
<glyph unicode="&#xf155;" glyph-name="dollar" horiz-adv-x="585" d="M559.104 187.136q0-88.064-57.344-150.528t-147.456-78.848v-99.328q0-8.192-5.12-13.312t-13.312-5.12h-76.8q-7.168 0-13.312 5.12t-5.12 13.312v99.328q-37.888 5.12-72.704 18.432t-58.368 25.6-41.984 26.624-26.624 21.504-10.24 10.24q-9.216 12.288-1.024 23.552l59.392 77.824q3.072 5.12 12.288 6.144t14.336-5.12l1.024-1.024q64.512-56.32 138.24-71.68 21.504-4.096 43.008-4.096 46.080 0 80.896 24.576t35.84 69.632q0 16.384-9.216 30.72t-18.432 23.552-33.792 21.504-37.888 18.432-46.080 18.432q-21.504 9.216-34.816 14.336t-34.816 15.36-35.84 17.408-32.768 20.48-29.696 24.576-25.6 27.648-20.48 32.768-11.264 37.888-5.12 45.056q0 78.848 56.32 138.24t145.408 76.8v102.4q0 7.168 5.12 13.312t13.312 5.12h76.8q8.192 0 13.312-5.12t5.12-13.312v-100.352q32.768-3.072 63.488-13.312t49.152-19.456 36.864-20.48 21.504-17.408 9.216-7.168q9.216-11.264 3.072-22.528l-47.104-82.944q-4.096-9.216-12.288-9.216-8.192-2.048-15.36 4.096-2.048 2.048-9.216 7.168t-21.504 14.336-33.792 18.432-43.008 15.36-48.128 6.144q-54.272 0-89.088-24.576t-33.792-63.488q0-14.336 4.096-27.648t17.408-23.552 22.528-18.432 31.744-18.432 34.816-15.36 39.936-15.36q30.72-11.264 46.080-17.408t44.032-20.48 43.008-24.576 34.816-28.672 30.72-35.84 18.432-44.032 7.168-53.248z" />
<glyph unicode="&#xf15a;" glyph-name="bitcoin" horiz-adv-x="731" d="M666.624 498.432q10.24-104.448-74.752-147.456 66.56-16.384 100.352-59.392t25.6-121.856q-4.096-40.96-18.432-71.68t-36.864-50.176-55.296-33.792-69.632-19.456-82.944-9.216v-145.408h-88.064v143.36q-46.080 0-69.632 1.024v-144.384h-88.064v145.408q-10.24 0-30.72 1.024t-31.744 0h-114.688l18.432 104.448h63.488q27.648 0 32.768 28.672v230.4h9.216q-4.096 0-9.216 0v164.864q-7.168 37.888-51.2 37.888h-63.488v94.208l121.856-1.024q35.84 0 55.296 1.024v144.384h88.064v-141.312q46.080 1.024 69.632 1.024v140.288h88.064v-144.384q45.056-4.096 79.872-13.312t64.512-25.6 47.104-44.032 20.48-65.536zM543.744 187.136q0 20.48-8.192 35.84t-21.504 26.624-32.768 17.408-36.864 11.264-43.008 5.12-38.912 1.024-36.864 0-27.648-1.024v-193.536q5.12 0 21.504 0t27.648 0 29.696 1.024 33.792 2.048 32.768 5.12 31.744 8.192 26.624 11.264 22.528 17.408 14.336 22.528 5.12 29.696zM503.808 458.496q0 19.456-7.168 33.792t-17.408 23.552-27.648 16.384-31.744 9.216-34.816 5.12-32.768 1.024-31.744 0-22.528-1.024v-175.104q3.072 0 20.48 0t26.624 0 27.648 1.024 31.744 3.072 29.696 6.144 27.648 10.24 21.504 15.36 15.36 22.528 5.12 28.672z" />
<glyph unicode="&#xf15c;" glyph-name="doc-text-inv" horiz-adv-x="878" d="M838.656 591.616q8.192-7.168 16.384-20.48h-270.336v270.336q13.312-8.192 21.504-16.384zM567.296 498.432h310.272v-603.136q0-23.552-15.36-38.912t-38.912-16.384h-768q-23.552 0-38.912 16.384t-16.384 38.912v913.408q0 23.552 16.384 38.912t38.912 16.384h456.704v-311.296q0-22.528 16.384-37.888t38.912-16.384zM658.432 77.568v36.864q0 8.192-5.12 13.312t-13.312 5.12h-402.432q-8.192 0-13.312-5.12t-5.12-13.312v-36.864q0-8.192 5.12-13.312t13.312-5.12h402.432q8.192 0 13.312 5.12t5.12 13.312zM658.432 224v36.864q0 8.192-5.12 13.312t-13.312 5.12h-402.432q-8.192 0-13.312-5.12t-5.12-13.312v-36.864q0-8.192 5.12-13.312t13.312-5.12h402.432q8.192 0 13.312 5.12t5.12 13.312zM658.432 370.432v36.864q0 7.168-5.12 12.288t-13.312 5.12h-402.432q-8.192 0-13.312-5.12t-5.12-12.288v-36.864q0-8.192 5.12-13.312t13.312-5.12h402.432q8.192 0 13.312 5.12t5.12 13.312z" />
<glyph unicode="&#xf175;" glyph-name="down" horiz-adv-x="438" d="M437.248 121.6q4.096-10.24-3.072-19.456l-199.68-220.16q-6.144-5.12-13.312-5.12-8.192 0-13.312 5.12l-202.752 220.16q-8.192 9.216-3.072 19.456 5.12 11.264 16.384 11.264h128v712.704q0 8.192 5.12 13.312t13.312 5.12h109.568q8.192 0 13.312-5.12t5.12-13.312v-712.704h128q11.264 0 16.384-11.264z" />
<glyph unicode="&#xf176;" glyph-name="up" horiz-adv-x="438" d="M437.248 582.4q-5.12-11.264-16.384-11.264h-128v-712.704q0-8.192-5.12-13.312t-13.312-5.12h-109.568q-8.192 0-13.312 5.12t-5.12 13.312v712.704h-128q-12.288 0-16.384 11.264t3.072 19.456l199.68 220.16q5.12 5.12 13.312 5.12 7.168 0 13.312-5.12l202.752-220.16q7.168-8.192 3.072-19.456z" />
<glyph unicode="&#xf177;" glyph-name="left" d="M1024 407.296v-110.592q0-7.168-5.12-12.288t-13.312-5.12h-712.704v-128q0-12.288-11.264-17.408t-19.456 3.072l-220.16 200.704q-5.12 5.12-5.12 12.288 0 8.192 5.12 14.336l220.16 201.728q9.216 8.192 19.456 4.096 11.264-5.12 11.264-17.408v-128h712.704q8.192 0 13.312-5.12t5.12-12.288z" />
<glyph unicode="&#xf178;" glyph-name="right" d="M987.136 354.048q0-8.192-5.12-14.336l-220.16-201.728q-8.192-8.192-19.456-4.096-11.264 5.12-11.264 17.408v128h-712.704q-8.192 0-13.312 5.12t-5.12 12.288v110.592q0 7.168 5.12 12.288t13.312 5.12h712.704v128q0 12.288 11.264 17.408t19.456-3.072l220.16-199.68q5.12-6.144 5.12-13.312z" />
<glyph unicode="&#xf192;" glyph-name="dot-circled" horiz-adv-x="878" d="M584.704 352q0-60.416-41.984-103.424t-103.424-43.008-103.424 43.008-43.008 103.424 43.008 103.424 103.424 43.008 103.424-43.008 41.984-103.424zM439.296 663.296q-84.992 0-156.672-41.984t-112.64-113.664-41.984-155.648 41.984-155.648 112.64-113.664 156.672-41.984 155.648 41.984 112.64 113.664 41.984 155.648-41.984 155.648-112.64 113.664-155.648 41.984zM877.568 352q0-119.808-58.368-220.16t-159.744-159.744-220.16-59.392-221.184 59.392-158.72 159.744-59.392 220.16 59.392 220.16 158.72 159.744 221.184 59.392 220.16-59.392 159.744-159.744 58.368-220.16z" />
<glyph unicode="&#xf197;" glyph-name="space-shuttle" horiz-adv-x="1243" d="M354.304 224q-62.464-36.864-153.6-36.864h-72.704v36.864h-36.864q-7.168 0-12.288 13.312t-6.144 32.768q0 13.312 4.096 27.648-32.768 1.024-54.272 6.144t-22.528 11.264 22.528 12.288 54.272 6.144q-4.096 14.336-4.096 27.648 0 18.432 6.144 32.768t12.288 13.312h36.864v35.84h72.704q91.136 0 153.6-35.84h635.904q24.576-4.096 61.44-10.24t45.056-8.192q51.2-9.216 86.016-23.552t48.128-26.624 12.288-23.552-12.288-22.528-48.128-26.624-86.016-23.552q-8.192-2.048-45.056-8.192t-61.44-10.24h-635.904zM993.28 368.384q30.72-20.48 30.72-53.248t-30.72-52.224l47.104-17.408q38.912 27.648 38.912 69.632t-38.912 69.632zM357.376 214.784h579.584q-123.904-21.504-260.096-46.080-32.768 0-64.512-13.312t-48.128-27.648l-15.36-13.312-164.864-164.864q-14.336-14.336-39.936-25.6t-51.2-11.264h-55.296l-53.248 265.216h16.384q90.112 0 156.672 36.864zM200.704 452.352h-16.384l53.248 265.216h55.296q25.6 0 51.2-10.24t39.936-26.624l164.864-163.84q2.048-2.048 6.144-6.144t17.408-13.312 27.648-16.384 34.816-13.312 41.984-6.144l260.096-45.056h-579.584q-66.56 35.84-156.672 35.84z" />
<glyph unicode="&#xf19c;" glyph-name="bank" horiz-adv-x="1169" d="M548.864 864l547.84-219.136v-73.728h-72.704q0-14.336-11.264-25.6t-27.648-10.24h-872.448q-16.384 0-27.648 10.24t-12.288 25.6h-72.704v73.728zM146.432 498.432h146.432v-439.296h72.704v439.296h146.432v-439.296h72.704v439.296h146.432v-439.296h73.728v439.296h146.432v-439.296h33.792q15.36 0 27.648-10.24t11.264-25.6v-36.864h-951.296v36.864q0 14.336 12.288 25.6t27.648 10.24h33.792v439.296zM1057.792-50.432q16.384 0 27.648-11.264t11.264-25.6v-72.704h-1096.704v72.704q0 15.36 11.264 25.6t28.672 11.264h1017.856z" />
<glyph unicode="&#xf1b2;" glyph-name="cube" d="M512-66.816l365.568 199.68v363.52l-365.568-133.12v-430.080zM475.136 427.776l399.36 144.384-399.36 145.408-398.336-145.408zM951.296 571.136v-438.272q0-20.48-10.24-37.888t-28.672-26.624l-402.432-219.136q-15.36-9.216-34.816-9.216t-34.816 9.216l-402.432 219.136q-17.408 10.24-27.648 26.624t-10.24 37.888v438.272q0 23.552 13.312 41.984t34.816 26.624l402.432 146.432q12.288 5.12 24.576 5.12t25.6-5.12l402.432-146.432q21.504-8.192 34.816-26.624t13.312-41.984z" />
<glyph unicode="&#xf1b3;" glyph-name="cubes" horiz-adv-x="1316" d="M365.568-68.864l219.136 109.568v180.224l-219.136-94.208v-195.584zM328.704 191.232l231.424 98.304-231.424 99.328-230.4-99.328zM951.296-68.864l219.136 109.568v180.224l-219.136-94.208v-195.584zM914.432 191.232l230.4 98.304-230.4 99.328-231.424-99.328zM658.432 358.144l219.136 94.208v152.576l-219.136-94.208v-152.576zM621.568 575.232l251.904 107.52-251.904 108.544-251.904-108.544zM1243.136 279.296v-238.592q0-20.48-10.24-37.888t-29.696-26.624l-256-128q-14.336-8.192-32.768-8.192t-32.768 8.192l-256 128q-2.048 1.024-4.096 2.048-1.024-1.024-4.096-2.048l-256-128q-14.336-8.192-32.768-8.192t-31.744 8.192l-256 128q-19.456 9.216-29.696 26.624t-11.264 37.888v238.592q0 21.504 12.288 39.936t32.768 26.624l247.808 106.496v228.352q0 22.528 12.288 40.96t31.744 26.624l256 109.568q13.312 6.144 28.672 6.144t28.672-6.144l256-109.568q20.48-9.216 32.768-26.624t12.288-40.96v-228.352l247.808-106.496q20.48-8.192 32.768-26.624t11.264-39.936z" />
<glyph unicode="&#xf1d8;" glyph-name="paper-plane" d="M1007.616 857.856q19.456-13.312 15.36-36.864l-145.408-877.568q-3.072-16.384-18.432-25.6-8.192-5.12-18.432-5.12-6.144 0-13.312 3.072l-259.072 106.496-138.24-168.96q-10.24-13.312-27.648-13.312-7.168 0-12.288 2.048-11.264 4.096-17.408 13.312t-7.168 21.504v199.68l493.568 604.16-610.304-528.384-226.304 93.184q-20.48 8.192-22.528 30.72-1.024 23.552 18.432 33.792l950.272 548.864q9.216 5.12 18.432 5.12 11.264 0 20.48-6.144z" />
<glyph unicode="&#xf1d9;" glyph-name="paper-plane-empty" d="M1007.616 857.856q19.456-13.312 15.36-36.864l-145.408-877.568q-3.072-16.384-18.432-25.6-8.192-5.12-18.432-5.12-6.144 0-13.312 3.072l-301.056 122.88-169.984-186.368q-10.24-12.288-27.648-12.288-7.168 0-12.288 2.048-11.264 4.096-17.408 13.312t-6.144 21.504v258.048l-270.336 110.592q-20.48 8.192-22.528 30.72t18.432 33.792l950.272 548.864q20.48 12.288 38.912-1.024zM813.056 0.768l125.952 756.736-819.2-473.088 191.488-77.824 493.568 364.544-273.408-454.656z" />
<glyph unicode="&#xf1db;" glyph-name="circle-thin" horiz-adv-x="878" d="M439.296 717.568q-74.752 0-142.336-28.672t-116.736-77.824-77.824-116.736-29.696-142.336 29.696-142.336 77.824-115.712 116.736-78.848 142.336-28.672 141.312 28.672 116.736 78.848 77.824 115.712 29.696 142.336-29.696 142.336-77.824 116.736-116.736 77.824-141.312 28.672zM877.568 352q0-119.808-58.368-220.16t-159.744-159.744-220.16-59.392-221.184 59.392-158.72 159.744-59.392 220.16 59.392 220.16 158.72 159.744 221.184 59.392 220.16-59.392 159.744-159.744 58.368-220.16z" />
</font>
</defs>
</svg>
