<svg width="193" height="32" viewBox="0 0 193 32" fill="none" xmlns="http://www.w3.org/2000/svg">
<path d="M66.3035 5.01885C61.9262 5.01885 58.4822 7.52939 58.4822 11.5527C58.4822 15.6404 61.2502 17.2497 65.9173 18.2797L66.207 18.3441C69.1681 18.9878 70.8418 19.6315 70.8418 21.5949C70.8418 23.2686 69.5544 24.717 66.8185 24.717C63.4067 24.717 61.8296 22.8502 61.8296 20.0821V19.5028H57.6454V20.2109C57.6454 25.4895 61.1859 28.4506 66.6898 28.4506C71.4856 28.4506 75.0261 25.9079 75.0261 21.3696C75.0261 17.2819 72.2902 15.6404 67.6554 14.6104L67.3657 14.546C64.662 13.9345 62.6665 13.5483 62.6665 11.424C62.6665 9.87901 64.0505 8.75248 66.3035 8.75248C68.8784 8.75248 70.52 9.87901 70.52 12.4539V13.1298H74.6398V12.1642C74.6398 7.65814 71.1315 5.01885 66.3035 5.01885ZM77.006 20.0178C77.006 25.0388 80.6753 28.4506 85.3745 28.4506C90.0737 28.4506 93.743 25.0388 93.743 20.0178C93.743 14.9967 90.0737 11.5849 85.3745 11.5849C80.6753 11.5849 77.006 14.9967 77.006 20.0178ZM81.0615 20.0178C81.0615 17.121 82.7996 15.1898 85.3745 15.1898C87.9494 15.1898 89.6875 17.121 89.6875 20.0178C89.6875 22.9145 87.9494 24.8457 85.3745 24.8457C82.7996 24.8457 81.0615 22.9145 81.0615 20.0178ZM94.9462 12.0355V15.5116H99.0017V28H103.057V15.5116H107.241V12.0355H103.057V9.91119C103.057 9.26747 103.379 8.9456 103.958 8.9456H106.405V5.46946H102.22C100.354 5.46946 99.0017 6.88567 99.0017 8.75248V12.0355H94.9462ZM107.95 12.0355V15.5116H112.006V24.9101C112.006 26.7125 113.357 28 115.16 28H119.537V24.5239H116.962C116.383 24.5239 116.061 24.202 116.061 23.5583V15.5116H120.438V12.0355H116.061V7.07878H112.006V12.0355H107.95ZM121.659 12.0355L124.813 28H130.607L133.117 15.5116H133.504L136.014 28H141.808L144.962 12.0355H140.907L139.008 24.5239H138.621L136.111 12.0355H130.51L128 24.5239H127.614L125.714 12.0355H121.659ZM146.419 15.7048L149.702 17.8291C150.7 16.1554 152.019 15.061 154.143 15.061C156.332 15.061 157.491 16.2519 157.491 17.7647V18.1509L151.375 18.8269C148.318 19.1487 146.097 20.919 146.097 23.4617C146.097 26.5194 148.479 28.4506 152.084 28.4506C155.463 28.4506 156.59 26.8091 157.105 25.7469H157.555V28H161.546V17.7969C161.546 14.0633 158.714 11.5849 154.369 11.5849C150.474 11.5849 148.318 13.323 146.419 15.7048ZM150.345 23.2364C150.345 22.303 151.086 21.7558 152.599 21.5627L157.491 20.9833V21.2408C157.491 23.4295 155.914 25.1032 153.081 25.1032C151.279 25.1032 150.345 24.3307 150.345 23.2364ZM168.935 12.0355H164.944V28H169V18.9878C169 16.7347 170.48 15.6404 172.54 15.6404H174.922V11.9711H173.377C171.349 11.9711 169.998 12.5827 169.386 14.3529H168.935V12.0355ZM175.546 19.889C175.546 24.8457 178.99 28.4506 183.753 28.4506C188.034 28.4506 189.901 26.1976 190.995 24.5239L187.68 22.5927C187.133 23.7192 185.942 24.9745 183.689 24.9745C181.371 24.9745 179.859 23.333 179.698 21.2087H191.317V19.6315C191.317 14.8357 188.195 11.5849 183.56 11.5849C178.861 11.5849 175.546 15.061 175.546 19.889ZM179.73 18.3762C180.052 16.4129 181.243 15.061 183.528 15.061C185.62 15.061 186.908 16.3485 187.197 18.3762H179.73Z" fill="white"/>
<mask id="mask0" mask-type="alpha" maskUnits="userSpaceOnUse" x="0" y="0" width="45" height="32">
<rect width="44.5148" height="31.037" fill="#C4C4C4"/>
</mask>
<g mask="url(#mask0)">
<path d="M38.6993 40.2759V34.4853H23.5231V31.0467H33.0112C39.0746 31.0467 44.0075 26.1138 44.0075 20.0504C44.0075 14.0265 39.1388 9.11851 33.1299 9.05463C31.8343 3.86453 27.1127 0.0947266 21.6523 0.0947266C15.1297 0.0947266 9.82311 5.40129 9.82311 11.9239C9.82311 11.9731 9.8234 12.0223 9.82406 12.0716C9.77585 12.0708 9.72773 12.0704 9.67951 12.0704C4.44774 12.0704 0.191406 16.3268 0.191406 21.5585C0.191406 26.7903 4.44774 31.0467 9.67951 31.0467H20.6757V34.4853H5.49958V40.2759C3.85026 40.8929 2.67265 42.4844 2.67265 44.3463C2.67265 46.7419 4.62162 48.6908 7.01717 48.6908C9.41271 48.6908 11.3617 46.7419 11.3617 44.3463C11.3617 42.4145 10.094 40.7739 8.34701 40.2108V37.3327H20.6757V40.2426C18.9775 40.8335 17.7549 42.4494 17.7549 44.3462C17.7549 46.7419 19.7039 48.6908 22.0994 48.6908C24.495 48.6908 26.4439 46.7419 26.4439 44.3463C26.4439 42.4494 25.2213 40.8335 23.5231 40.2427V37.3328H35.8518V40.2109C34.1049 40.774 32.8372 42.4146 32.8372 44.3464C32.8372 46.742 34.7861 48.6909 37.1817 48.6909C39.5772 48.6909 41.5262 46.742 41.5262 44.3464C41.5262 42.4845 40.3486 40.8929 38.6993 40.2759ZM8.51425 44.3463C8.51425 45.1718 7.84273 45.8434 7.01717 45.8434C6.1917 45.8434 5.52008 45.1718 5.52008 44.3463C5.52008 43.5209 6.1917 42.8492 7.01717 42.8492C7.84263 42.8492 8.51425 43.5209 8.51425 44.3463ZM23.5965 44.3463C23.5965 45.1718 22.9249 45.8434 22.0994 45.8434C21.274 45.8434 20.6023 45.1718 20.6023 44.3463C20.6023 43.5209 21.274 42.8492 22.0994 42.8492C22.9249 42.8492 23.5965 43.5209 23.5965 44.3463ZM37.1817 45.8434C36.3562 45.8434 35.6846 45.1718 35.6846 44.3463C35.6846 43.5209 36.3562 42.8492 37.1817 42.8492C38.0071 42.8492 38.6788 43.5209 38.6788 44.3463C38.6788 45.1718 38.0071 45.8434 37.1817 45.8434Z" fill="#5445FF"/>
</g>
</svg>
